<svg width="238" height="259" viewBox="0 0 238 259" fill="none" xmlns="http://www.w3.org/2000/svg">
<path d="M64.9328 9.32L61.2028 0H0.632812V9.32V39.27V258.24H237.573V9.32H64.9328Z" fill="#D6DDE3"/>
<path d="M232.911 15.3105H3.96094V255.581H232.911V15.3105Z" fill="white"/>
<path d="M232.911 15.3105H3.96094V25.2905H232.911V15.3105Z" fill="#B8D78E"/>
<path d="M163.724 35.7402H79.9738C76.4438 35.7402 73.5938 38.6002 73.5938 42.1202V57.6002V62.0502V76.4302L81.1438 68.4302H163.734C167.264 68.4302 170.114 65.5702 170.114 62.0502V42.1302C170.114 38.6002 167.254 35.7402 163.724 35.7402Z" fill="#D6DDE3"/>
<path d="M90.6831 58.7608C95.6426 58.7608 99.6631 54.7403 99.6631 49.7808C99.6631 44.8213 95.6426 40.8008 90.6831 40.8008C85.7236 40.8008 81.7031 44.8213 81.7031 49.7808C81.7031 54.7403 85.7236 58.7608 90.6831 58.7608Z" fill="white"/>
<path d="M95.21 49.1694C95.21 49.1694 96.15 47.9094 96.36 49.1694C96.57 50.4294 94.75 51.9894 94.75 51.9894L95.21 49.1694Z" fill="white" stroke="#263238" stroke-miterlimit="10" stroke-linecap="round" stroke-linejoin="round"/>
<path d="M86.1825 49.1694C86.1825 49.1694 85.2425 47.9094 85.0325 49.1694C84.8225 50.4294 86.6425 51.9894 86.6425 51.9894L86.1825 49.1694Z" fill="white" stroke="#263238" stroke-miterlimit="10" stroke-linecap="round" stroke-linejoin="round"/>
<path d="M91.0131 42.9801C91.0131 42.9801 87.4631 42.7101 86.6431 45.0701C85.8231 47.4401 86.3731 51.2601 86.6431 51.9901C86.9131 52.7201 89.1931 56.2701 89.8331 56.5401C90.4731 56.8101 92.0231 56.7201 92.2931 56.3601C92.5631 56.0001 94.8431 52.6301 95.0231 51.4401C95.1431 50.6301 95.0231 47.8901 94.9231 46.2201C94.8531 44.9701 94.0831 43.8701 92.9231 43.3901C92.4031 43.1901 91.7731 43.0201 91.0131 42.9801Z" fill="white" stroke="#263238" stroke-miterlimit="10" stroke-linecap="round" stroke-linejoin="round"/>
<path d="M94.9191 46.2301C94.8491 44.9801 94.0791 43.8801 92.9191 43.4001C92.4091 43.1901 91.7791 43.0301 91.0191 42.9801C91.0191 42.9801 87.4691 42.7101 86.6491 45.0701C86.2291 46.2801 86.1691 47.8701 86.2491 49.2301C86.4291 49.4401 87.0191 50.0701 86.9291 49.2701C86.8291 48.3301 86.7191 45.5001 87.4491 44.8701C88.1791 44.2401 88.2891 43.7201 89.3291 44.5601C90.3791 45.4001 90.2691 46.1301 91.3191 45.6101C92.3691 45.0901 92.5791 43.9301 93.5191 44.3501C94.4591 44.7701 94.1491 46.7601 94.1491 47.7001C94.1491 48.6401 94.1491 50.4201 94.7791 49.5801C94.8691 49.4601 94.9691 49.2501 95.0591 49.0101C95.0191 48.0601 94.9591 47.0201 94.9191 46.2301Z" fill="#263238" stroke="#263238" stroke-miterlimit="10" stroke-linecap="round" stroke-linejoin="round"/>
<path d="M104.953 43.3711H123.553" stroke="white" stroke-width="2" stroke-miterlimit="10" stroke-linecap="round" stroke-linejoin="round"/>
<path d="M104.953 49.8516H161.883" stroke="white" stroke-miterlimit="10" stroke-linecap="round" stroke-linejoin="round"/>
<path d="M104.953 55.2012H161.883" stroke="white" stroke-miterlimit="10" stroke-linecap="round" stroke-linejoin="round"/>
<path d="M104.953 61.1211H161.883" stroke="white" stroke-miterlimit="10" stroke-linecap="round" stroke-linejoin="round"/>
<path d="M163.724 170.529H79.9738C76.4438 170.529 73.5938 173.389 73.5938 176.909V192.379V196.829V211.209L81.1438 203.209H163.734C167.264 203.209 170.114 200.349 170.114 196.829V176.909C170.114 173.379 167.254 170.529 163.724 170.529Z" fill="#D6DDE3"/>
<path d="M96.8298 191.115C100.442 187.718 100.616 182.035 97.2186 178.422C93.8209 174.81 88.1379 174.636 84.5254 178.033C80.9129 181.431 80.7388 187.114 84.1366 190.727C87.5343 194.339 93.2173 194.513 96.8298 191.115Z" fill="white"/>
<path d="M95.21 183.949C95.21 183.949 96.15 182.689 96.36 183.949C96.57 185.209 94.75 186.769 94.75 186.769L95.21 183.949Z" fill="white" stroke="#263238" stroke-miterlimit="10" stroke-linecap="round" stroke-linejoin="round"/>
<path d="M86.1825 183.949C86.1825 183.949 85.2425 182.689 85.0325 183.949C84.8225 185.209 86.6425 186.769 86.6425 186.769L86.1825 183.949Z" fill="white" stroke="#263238" stroke-miterlimit="10" stroke-linecap="round" stroke-linejoin="round"/>
<path d="M91.0131 177.759C91.0131 177.759 87.4631 177.489 86.6431 179.849C85.8231 182.219 86.3731 186.039 86.6431 186.769C86.9131 187.499 89.1931 191.049 89.8331 191.319C90.4731 191.589 92.0231 191.499 92.2931 191.139C92.5631 190.779 94.8431 187.409 95.0231 186.219C95.1431 185.409 95.0231 182.669 94.9231 180.999C94.8531 179.749 94.0831 178.649 92.9231 178.169C92.4031 177.969 91.7731 177.809 91.0131 177.759Z" fill="white" stroke="#263238" stroke-miterlimit="10" stroke-linecap="round" stroke-linejoin="round"/>
<path d="M94.9191 181.009C94.8491 179.759 94.0791 178.659 92.9191 178.179C92.4091 177.969 91.7791 177.809 91.0191 177.759C91.0191 177.759 87.4691 177.489 86.6491 179.849C86.2291 181.059 86.1691 182.649 86.2491 184.009C86.4291 184.219 87.0191 184.849 86.9291 184.049C86.8291 183.109 86.7191 180.279 87.4491 179.649C88.1791 179.019 88.2891 178.499 89.3291 179.339C90.3791 180.179 90.2691 180.909 91.3191 180.389C92.3691 179.869 92.5791 178.709 93.5191 179.129C94.4591 179.549 94.1491 181.539 94.1491 182.479C94.1491 183.419 94.1491 185.199 94.7791 184.359C94.8691 184.239 94.9691 184.029 95.0591 183.789C95.0191 182.839 94.9591 181.809 94.9191 181.009Z" fill="#263238" stroke="#263238" stroke-miterlimit="10" stroke-linecap="round" stroke-linejoin="round"/>
<path d="M104.953 178.148H123.553" stroke="white" stroke-width="2" stroke-miterlimit="10" stroke-linecap="round" stroke-linejoin="round"/>
<path d="M104.953 184.629H161.883" stroke="white" stroke-miterlimit="10" stroke-linecap="round" stroke-linejoin="round"/>
<path d="M104.953 189.988H161.883" stroke="white" stroke-miterlimit="10" stroke-linecap="round" stroke-linejoin="round"/>
<path d="M104.953 195.908H161.883" stroke="white" stroke-miterlimit="10" stroke-linecap="round" stroke-linejoin="round"/>
<path d="M208.153 126.17H124.403C120.873 126.17 118.023 129.03 118.023 132.55V152.47C118.023 156 120.883 158.85 124.403 158.85H206.993L214.543 166.85V152.47V148.02V132.55C214.533 129.02 211.673 126.17 208.153 126.17Z" fill="#D6DDE3"/>
<path d="M135.105 149.19C140.065 149.19 144.085 145.17 144.085 140.21C144.085 135.251 140.065 131.23 135.105 131.23C130.145 131.23 126.125 135.251 126.125 140.21C126.125 145.17 130.145 149.19 135.105 149.19Z" fill="white"/>
<path d="M139.632 139.589C139.632 139.589 140.572 138.329 140.782 139.589C140.992 140.849 139.172 142.409 139.172 142.409L139.632 139.589Z" fill="white" stroke="#263238" stroke-miterlimit="10" stroke-linecap="round" stroke-linejoin="round"/>
<path d="M130.612 139.589C130.612 139.589 129.672 138.329 129.462 139.589C129.252 140.849 131.072 142.409 131.072 142.409L130.612 139.589Z" fill="white" stroke="#263238" stroke-miterlimit="10" stroke-linecap="round" stroke-linejoin="round"/>
<path d="M135.443 133.4C135.443 133.4 131.893 133.13 131.073 135.49C130.253 137.86 130.803 141.68 131.073 142.41C131.343 143.14 133.623 146.69 134.263 146.96C134.903 147.23 136.453 147.14 136.723 146.78C136.993 146.42 139.273 143.05 139.453 141.86C139.573 141.05 139.453 138.31 139.353 136.64C139.283 135.39 138.513 134.29 137.353 133.81C136.833 133.61 136.203 133.45 135.443 133.4Z" fill="white" stroke="#263238" stroke-miterlimit="10" stroke-linecap="round" stroke-linejoin="round"/>
<path d="M139.343 136.65C139.273 135.4 138.503 134.3 137.343 133.82C136.833 133.61 136.203 133.45 135.433 133.4C135.433 133.4 131.883 133.13 131.063 135.49C130.643 136.7 130.583 138.29 130.663 139.65C130.843 139.86 131.433 140.49 131.343 139.69C131.243 138.75 131.133 135.92 131.863 135.29C132.593 134.66 132.703 134.14 133.743 134.98C134.793 135.82 134.683 136.55 135.733 136.03C136.783 135.51 136.993 134.35 137.933 134.77C138.873 135.19 138.563 137.18 138.563 138.12C138.563 139.06 138.563 140.84 139.193 140C139.283 139.88 139.383 139.67 139.473 139.43C139.443 138.49 139.393 137.45 139.343 136.65Z" fill="#263238" stroke="#263238" stroke-miterlimit="10" stroke-linecap="round" stroke-linejoin="round"/>
<path d="M131.859 135.3C131.859 135.3 132.869 137.06 135.399 137.45C137.929 137.84 139.339 136.65 139.339 136.65C139.339 136.65 140.469 136.67 140.469 135.3C140.469 133.94 140.859 134.52 138.909 134.52C136.959 134.52 132.389 130.9 131.859 135.3Z" fill="#263238" stroke="#263238" stroke-miterlimit="10" stroke-linecap="round" stroke-linejoin="round"/>
<path d="M134.975 140.17H131.445L131.815 141.33C131.885 141.56 132.095 141.71 132.335 141.71H134.155C134.405 141.71 134.625 141.54 134.685 141.3L134.975 140.17Z" fill="white" stroke="#263238" stroke-miterlimit="10" stroke-linecap="round" stroke-linejoin="round"/>
<path d="M138.882 140.17H135.352L135.722 141.33C135.792 141.56 136.002 141.71 136.242 141.71H138.062C138.312 141.71 138.532 141.54 138.592 141.3L138.882 140.17Z" fill="white" stroke="#263238" stroke-miterlimit="10" stroke-linecap="round" stroke-linejoin="round"/>
<path d="M149.375 133.789H167.975" stroke="white" stroke-width="2" stroke-miterlimit="10" stroke-linecap="round" stroke-linejoin="round"/>
<path d="M149.375 140.27H206.305" stroke="white" stroke-miterlimit="10" stroke-linecap="round" stroke-linejoin="round"/>
<path d="M149.375 145.629H206.305" stroke="white" stroke-miterlimit="10" stroke-linecap="round" stroke-linejoin="round"/>
<path d="M149.375 151.549H206.305" stroke="white" stroke-miterlimit="10" stroke-linecap="round" stroke-linejoin="round"/>
<path d="M164.911 82.8203H81.1613C77.6313 82.8203 74.7812 85.6803 74.7812 89.2003V104.67V109.12V123.5L82.3313 115.5H164.921C168.451 115.5 171.301 112.64 171.301 109.12V89.2103C171.291 85.6803 168.441 82.8203 164.911 82.8203Z" fill="#BABABA"/>
<path d="M92.9745 108.182C97.8655 107.36 101.164 102.728 100.342 97.8373C99.5194 92.9462 94.8878 89.6478 89.9967 90.4701C85.1056 91.2924 81.8072 95.924 82.6295 100.815C83.4518 105.706 88.0834 109.005 92.9745 108.182Z" fill="white"/>
<path d="M90.3436 92.5116C90.3436 92.5116 87.0936 91.2716 85.8636 94.5216C84.6236 97.7716 86.1736 102.252 86.1736 104.112C86.1736 105.972 88.0336 107.512 90.0336 107.672C92.0436 107.822 94.6736 108.132 96.2136 105.662C97.7636 103.192 97.1436 97.7816 96.5236 94.6816C95.9036 91.5816 92.5036 92.3516 90.3436 92.5116Z" fill="white" stroke="#263238" stroke-miterlimit="10" stroke-linecap="round" stroke-linejoin="round"/>
<path d="M95.9913 98.7123C95.9913 98.7123 96.9313 97.4523 97.1413 98.7123C97.3513 99.9723 95.5312 101.532 95.5312 101.532L95.9913 98.7123Z" fill="white" stroke="#263238" stroke-miterlimit="10" stroke-linecap="round" stroke-linejoin="round"/>
<path d="M86.9716 98.7123C86.9716 98.7123 86.0316 97.4523 85.8216 98.7123C85.6116 99.9723 87.4316 101.532 87.4316 101.532L86.9716 98.7123Z" fill="white" stroke="#263238" stroke-miterlimit="10" stroke-linecap="round" stroke-linejoin="round"/>
<path d="M91.8022 92.5211C91.8022 92.5211 88.2522 92.2511 87.4322 94.6111C86.6122 96.9811 87.1622 100.801 87.4322 101.531C87.7022 102.261 89.9822 105.811 90.6222 106.081C91.2622 106.351 92.8122 106.261 93.0822 105.901C93.3522 105.541 95.6322 102.171 95.8122 100.981C95.9322 100.171 95.8122 97.4311 95.7121 95.7611C95.6421 94.5111 94.8721 93.4111 93.7122 92.9311C93.1922 92.7311 92.5622 92.5711 91.8022 92.5211Z" fill="white" stroke="#263238" stroke-miterlimit="10" stroke-linecap="round" stroke-linejoin="round"/>
<path d="M89.1044 93.4408C89.1044 93.4408 94.8444 98.7108 95.9944 98.7108C97.1444 98.7108 97.2944 94.8308 96.0544 92.9708C94.8244 91.1208 88.9544 90.0408 89.1044 93.4408Z" fill="white" stroke="#263238" stroke-miterlimit="10" stroke-linecap="round" stroke-linejoin="round"/>
<path d="M105.031 89.8496H123.631" stroke="#263238" stroke-width="2" stroke-miterlimit="10" stroke-linecap="round" stroke-linejoin="round"/>
<path d="M105.031 96.3301H161.961" stroke="#263238" stroke-miterlimit="10" stroke-linecap="round" stroke-linejoin="round"/>
<path d="M105.031 101.68H161.961" stroke="#263238" stroke-miterlimit="10" stroke-linecap="round" stroke-linejoin="round"/>
<path d="M105.031 107.6H161.961" stroke="#263238" stroke-miterlimit="10" stroke-linecap="round" stroke-linejoin="round"/>
<path d="M64.4156 34.4199H29.0156V253.28H64.4156V34.4199Z" fill="#B8D78E"/>
<path d="M53.7531 105.472C58.1777 101.048 58.1777 93.8741 53.7531 89.4495C49.3285 85.0249 42.1548 85.0249 37.7302 89.4495C33.3056 93.8741 33.3056 101.048 37.7302 105.472C42.1548 109.897 49.3285 109.897 53.7531 105.472Z" fill="white"/>
<path d="M44.3274 88.8597C44.3274 88.8597 40.2274 87.2997 38.6674 91.3997C37.1074 95.4997 39.0574 101.15 39.0574 103.49C39.0574 105.83 41.3974 107.78 43.9374 107.98C46.4774 108.17 49.7874 108.57 51.7374 105.44C53.6874 102.32 52.9074 95.4897 52.1274 91.5897C51.3474 87.6897 47.0574 88.6597 44.3274 88.8597Z" fill="white" stroke="#263238" stroke-miterlimit="10" stroke-linecap="round" stroke-linejoin="round"/>
<path d="M51.455 96.6793C51.455 96.6793 52.645 95.0893 52.905 96.6793C53.165 98.2593 50.875 100.239 50.875 100.239L51.455 96.6793Z" fill="white" stroke="#263238" stroke-miterlimit="10" stroke-linecap="round" stroke-linejoin="round"/>
<path d="M40.0799 96.6793C40.0799 96.6793 38.89 95.0893 38.63 96.6793C38.37 98.2593 40.6599 100.239 40.6599 100.239L40.0799 96.6793Z" fill="white" stroke="#263238" stroke-miterlimit="10" stroke-linecap="round" stroke-linejoin="round"/>
<path d="M46.1646 88.8692C46.1646 88.8692 41.6846 88.5292 40.6446 91.5092C39.6146 94.4992 40.3046 99.3192 40.6446 100.239C40.9846 101.159 43.8646 105.639 44.6646 105.989C45.4646 106.329 47.4246 106.219 47.7646 105.759C48.1046 105.299 50.9846 101.049 51.2146 99.5492C51.3746 98.5292 51.2046 95.0692 51.0846 92.9592C50.9946 91.3792 50.0146 89.9892 48.5546 89.3892C47.9146 89.1392 47.1246 88.9292 46.1646 88.8692Z" fill="white" stroke="#263238" stroke-miterlimit="10" stroke-linecap="round" stroke-linejoin="round"/>
<path d="M42.7536 90.0298C42.7536 90.0298 49.9936 96.6798 51.4536 96.6798C52.9136 96.6798 53.0936 91.7798 51.5336 89.4398C49.9736 87.0998 42.5636 85.7398 42.7536 90.0298Z" fill="white" stroke="#263238" stroke-miterlimit="10" stroke-linecap="round" stroke-linejoin="round"/>
<path d="M48.327 70.4636C54.4186 69.0332 58.1972 62.9354 56.7667 56.8438C55.3363 50.7523 49.2385 46.9737 43.1469 48.4041C37.0554 49.8345 33.2768 55.9323 34.7072 62.0239C36.1377 68.1155 42.2355 71.8941 48.327 70.4636Z" fill="white"/>
<path d="M51.455 58.65C51.455 58.65 52.645 57.06 52.905 58.65C53.165 60.23 50.875 62.21 50.875 62.21L51.455 58.65Z" fill="white" stroke="#263238" stroke-miterlimit="10" stroke-linecap="round" stroke-linejoin="round"/>
<path d="M40.0721 58.65C40.0721 58.65 38.8821 57.06 38.6221 58.65C38.3621 60.23 40.6521 62.21 40.6521 62.21L40.0721 58.65Z" fill="white" stroke="#263238" stroke-miterlimit="10" stroke-linecap="round" stroke-linejoin="round"/>
<path d="M46.1646 50.8399C46.1646 50.8399 41.6846 50.4999 40.6446 53.4799C39.6146 56.4699 40.3046 61.2899 40.6446 62.2099C40.9846 63.1299 43.8646 67.6099 44.6646 67.9599C45.4646 68.2999 47.4246 68.1899 47.7646 67.7299C48.1046 67.2699 50.9846 63.0199 51.2146 61.5199C51.3746 60.4999 51.2046 57.0399 51.0846 54.9299C50.9946 53.3499 50.0146 51.9599 48.5546 51.3599C47.9146 51.0999 47.1246 50.8999 46.1646 50.8399Z" fill="white" stroke="#263238" stroke-miterlimit="10" stroke-linecap="round" stroke-linejoin="round"/>
<path d="M51.0909 54.9399C51.0009 53.3599 50.0209 51.9699 48.5609 51.3699C47.9109 51.0999 47.1209 50.8999 46.1609 50.8399C46.1609 50.8399 41.6809 50.4999 40.6409 53.4799C40.1109 55.0099 40.0309 57.0099 40.1309 58.7299C40.3609 58.9899 41.1009 59.7999 40.9909 58.7799C40.8609 57.5899 40.7309 54.0199 41.6509 53.2299C42.5709 52.4399 42.7109 51.7799 44.0309 52.8299C45.3509 53.8899 45.2209 54.8099 46.5409 54.1499C47.8609 53.4899 48.1309 52.0399 49.3109 52.5699C50.5009 53.0999 50.1009 55.6099 50.1009 56.7999C50.1009 57.9899 50.1009 60.2299 50.8909 59.1799C51.0109 59.0199 51.1309 58.7699 51.2409 58.4599C51.2109 57.2499 51.1409 55.9399 51.0909 54.9399Z" fill="#263238" stroke="#263238" stroke-miterlimit="10" stroke-linecap="round" stroke-linejoin="round"/>
<path d="M45.7441 146.609C52.0014 146.609 57.0741 141.537 57.0741 135.279C57.0741 129.022 52.0014 123.949 45.7441 123.949C39.4867 123.949 34.4141 129.022 34.4141 135.279C34.4141 141.537 39.4867 146.609 45.7441 146.609Z" fill="white"/>
<path d="M51.455 134.5C51.455 134.5 52.645 132.91 52.905 134.5C53.165 136.09 50.875 138.06 50.875 138.06L51.455 134.5Z" fill="white" stroke="#263238" stroke-miterlimit="10" stroke-linecap="round" stroke-linejoin="round"/>
<path d="M40.0721 134.5C40.0721 134.5 38.8821 132.91 38.6221 134.5C38.3621 136.09 40.6521 138.06 40.6521 138.06L40.0721 134.5Z" fill="white" stroke="#263238" stroke-miterlimit="10" stroke-linecap="round" stroke-linejoin="round"/>
<path d="M46.1646 126.689C46.1646 126.689 41.6846 126.349 40.6446 129.329C39.6146 132.319 40.3046 137.139 40.6446 138.059C40.9846 138.979 43.8646 143.459 44.6646 143.809C45.4646 144.149 47.4246 144.039 47.7646 143.579C48.1046 143.119 50.9846 138.869 51.2146 137.369C51.3746 136.349 51.2046 132.889 51.0846 130.779C50.9946 129.199 50.0146 127.809 48.5546 127.209C47.9146 126.959 47.1246 126.749 46.1646 126.689Z" fill="white" stroke="#263238" stroke-miterlimit="10" stroke-linecap="round" stroke-linejoin="round"/>
<path d="M51.0909 130.789C51.0009 129.209 50.0209 127.819 48.5609 127.219C47.9109 126.949 47.1209 126.749 46.1609 126.689C46.1609 126.689 41.6809 126.349 40.6409 129.329C40.1109 130.859 40.0309 132.859 40.1309 134.579C40.3609 134.839 41.1009 135.649 40.9909 134.629C40.8609 133.439 40.7309 129.869 41.6509 129.079C42.5709 128.289 42.7109 127.629 44.0309 128.679C45.3509 129.739 45.2209 130.659 46.5409 129.999C47.8609 129.339 48.1309 127.889 49.3109 128.419C50.5009 128.949 50.1009 131.459 50.1009 132.649C50.1009 133.839 50.1009 136.079 50.8909 135.029C51.0109 134.869 51.1309 134.619 51.2409 134.309C51.2109 133.109 51.1409 131.799 51.0909 130.789Z" fill="#263238" stroke="#263238" stroke-miterlimit="10" stroke-linecap="round" stroke-linejoin="round"/>
<path d="M41.6484 129.09C41.6484 129.09 42.9284 131.31 46.1184 131.8C49.3184 132.29 51.0884 130.8 51.0884 130.8C51.0884 130.8 52.5184 130.82 52.5184 129.1C52.5184 127.38 53.0084 128.12 50.5484 128.12C48.0884 128.12 42.3084 123.54 41.6484 129.09Z" fill="#263238" stroke="#263238" stroke-miterlimit="10" stroke-linecap="round" stroke-linejoin="round"/>
<path d="M45.575 135.24H41.125L41.595 136.71C41.685 136.99 41.955 137.19 42.245 137.19H44.545C44.865 137.19 45.135 136.98 45.215 136.67L45.575 135.24Z" fill="white" stroke="#263238" stroke-miterlimit="10" stroke-linecap="round" stroke-linejoin="round"/>
<path d="M50.5047 135.24H46.0547L46.5247 136.71C46.6147 136.99 46.8847 137.19 47.1747 137.19H49.4747C49.7947 137.19 50.0647 136.98 50.1447 136.67L50.5047 135.24Z" fill="white" stroke="#263238" stroke-miterlimit="10" stroke-linecap="round" stroke-linejoin="round"/>
<path d="M38.4922 76.3809H53.0722" stroke="#263238" stroke-width="2" stroke-miterlimit="10" stroke-linecap="round" stroke-linejoin="round"/>
<path d="M38.4922 113.65H53.0722" stroke="#263238" stroke-width="2" stroke-miterlimit="10" stroke-linecap="round" stroke-linejoin="round"/>
<path d="M38.4922 150.93H53.0722" stroke="#263238" stroke-width="2" stroke-miterlimit="10" stroke-linecap="round" stroke-linejoin="round"/>
</svg>
