<svg width="810" height="804" viewBox="0 0 810 804" fill="none" xmlns="http://www.w3.org/2000/svg">
<g id="No Upcoming Trips">
<g id="Group 3">
<mask id="mask0_7157_263084" style="mask-type:luminance" maskUnits="userSpaceOnUse" x="75" y="174" width="678" height="387">
<path id="Clip 2" fill-rule="evenodd" clip-rule="evenodd" d="M242.556 242.616H155.7C144.414 242.616 135.183 251.877 135.183 263.199C135.183 274.521 144.414 283.782 155.7 283.782H199.902H212.856C224.142 283.782 233.373 293.046 233.373 304.368C233.373 310.026 231.06 315.183 227.34 318.9C223.635 322.635 218.493 324.954 212.856 324.954H185.22H169.962H95.517C84.231 324.954 75 334.218 75 345.537C75 356.856 84.231 366.12 95.517 366.12H148.812C132.723 404.055 123.813 445.794 123.813 489.63C123.813 505.533 124.989 521.163 127.245 536.436C128.187 542.817 129.324 549.144 130.653 555.402C169.362 549.462 210.423 544.683 253.29 541.197L256.515 544.149L259.551 540.705C311.052 536.685 365.106 534.543 420.858 534.543C539.31 534.543 650.154 544.203 744.927 561C748.581 545.112 751.044 528.765 752.208 512.052C752.739 504.642 753 497.163 753 489.63C753 315.306 612.159 174 438.408 174C364.356 174 296.295 199.671 242.556 242.616Z" fill="white"/>
</mask>
<g mask="url(#mask0_7157_263084)">
<path id="Fill 1" fill-rule="evenodd" clip-rule="evenodd" d="M60 576H768V159H60V576Z" fill="#F1F2F7"/>
</g>
</g>
<g id="Group 6">
<mask id="mask1_7157_263084" style="mask-type:luminance" maskUnits="userSpaceOnUse" x="0" y="324" width="54" height="42">
<path id="Clip 5" fill-rule="evenodd" clip-rule="evenodd" d="M20.781 324C9.351 324 0 333.453 0 345C0 356.547 9.351 366 20.781 366H33.216C44.649 366 54 356.547 54 345C54 333.453 44.649 324 33.216 324H20.781Z" fill="white"/>
</mask>
<g mask="url(#mask1_7157_263084)">
<path id="Fill 4" fill-rule="evenodd" clip-rule="evenodd" d="M-15 381H69V309H-15V381Z" fill="#F1F2F7"/>
</g>
</g>
<g id="Group 9">
<mask id="mask2_7157_263084" style="mask-type:luminance" maskUnits="userSpaceOnUse" x="130" y="534" width="680" height="270">
<path id="Clip 8" fill-rule="evenodd" clip-rule="evenodd" d="M259.096 541.119L256.057 544.542L252.832 541.608C209.977 545.073 168.928 549.816 130.225 555.723C160.378 697.569 286.678 804 437.905 804C508.714 804 574.051 780.654 626.632 741.273H682.603C693.883 741.273 703.114 732.066 703.114 720.819C703.114 715.203 700.801 710.073 697.084 706.38C693.376 702.669 688.234 700.365 682.603 700.365H658.261C646.978 700.365 637.747 691.161 637.747 679.911C637.747 674.292 640.06 669.165 643.777 665.469C647.485 661.758 652.627 659.457 658.261 659.457H789.28C800.563 659.457 809.791 650.253 809.791 639C809.791 633.381 807.478 628.254 803.761 624.561C800.041 620.85 794.923 618.546 789.28 618.546H725.035C733.24 600.315 739.75 581.169 744.355 561.288C649.603 544.599 538.786 534.996 420.361 534.996C364.624 534.996 310.579 537.123 259.096 541.119Z" fill="white"/>
</mask>
<g mask="url(#mask2_7157_263084)">
<path id="Fill 7" fill-rule="evenodd" clip-rule="evenodd" d="M115.225 819H824.788V519.996H115.225V819Z" fill="#E8EBF2"/>
</g>
</g>
<g id="Group 12">
<mask id="mask3_7157_263084" style="mask-type:luminance" maskUnits="userSpaceOnUse" x="258" y="498" width="492" height="63">
<path id="Clip 11" fill-rule="evenodd" clip-rule="evenodd" d="M689.325 537.912L657.651 508.881L623.757 534.039L609.549 514.464L553.461 534.039L424.254 514.464L349.149 535.2C372.114 534.432 395.448 534.039 419.091 534.039C537.384 534.039 648.084 543.882 742.734 561C746.376 544.806 748.839 528.15 750 511.119L739.278 498L689.325 537.912ZM258 540.318C287.592 537.96 318.027 536.238 349.149 535.2L293.667 498.996L258 540.318Z" fill="white"/>
</mask>
<g mask="url(#mask3_7157_263084)">
<path id="Fill 10" fill-rule="evenodd" clip-rule="evenodd" d="M243 576H765V483H243V576Z" fill="#E0E2EE"/>
</g>
</g>
<g id="Group 15">
<mask id="mask4_7157_263084" style="mask-type:luminance" maskUnits="userSpaceOnUse" x="252" y="540" width="6" height="3">
<path id="Clip 14" fill-rule="evenodd" clip-rule="evenodd" d="M252 540.432L255.09 543.003L258 540C255.996 540.132 253.989 540.276 252 540.432Z" fill="white"/>
</mask>
<g mask="url(#mask4_7157_263084)">
<path id="Fill 13" fill-rule="evenodd" clip-rule="evenodd" d="M237 558H273V525H237V558Z" fill="#F1F2F7"/>
</g>
</g>
<g id="Group 18">
<mask id="mask5_7157_263084" style="mask-type:luminance" maskUnits="userSpaceOnUse" x="126" y="486" width="126" height="69">
<path id="Clip 17" fill-rule="evenodd" clip-rule="evenodd" d="M126 536.004C126.942 542.397 128.079 548.733 129.402 555C168.099 549.051 209.148 544.266 252 540.774L192.327 486L126 536.004Z" fill="white"/>
</mask>
<g mask="url(#mask5_7157_263084)">
<path id="Fill 16" fill-rule="evenodd" clip-rule="evenodd" d="M111 570H267V471H111V570Z" fill="#E0E2EE"/>
</g>
</g>
<g id="Group 21">
<mask id="mask6_7157_263084" style="mask-type:luminance" maskUnits="userSpaceOnUse" x="326" y="653" width="235" height="22">
<path id="Clip 20" fill-rule="evenodd" clip-rule="evenodd" d="M326.15 663.656C326.15 669.452 378.533 674.156 443.153 674.156C507.77 674.156 560.153 669.452 560.153 663.656C560.153 657.86 507.77 653.156 443.153 653.156C378.533 653.156 326.15 657.86 326.15 663.656Z" fill="white"/>
</mask>
<g mask="url(#mask6_7157_263084)">
<path id="Fill 19" fill-rule="evenodd" clip-rule="evenodd" d="M311.156 689.156H575.156V638.156H311.156V689.156Z" fill="#D8DBEA"/>
</g>
</g>
<g id="Group 24">
<mask id="mask7_7157_263084" style="mask-type:luminance" maskUnits="userSpaceOnUse" x="723" y="699" width="42" height="42">
<path id="Clip 23" fill-rule="evenodd" clip-rule="evenodd" d="M723 720C723 731.55 732.45 741 744 741C755.55 741 765 731.55 765 720C765 708.453 755.55 699 744 699C732.45 699 723 708.453 723 720Z" fill="white"/>
</mask>
<g mask="url(#mask7_7157_263084)">
<path id="Fill 22" fill-rule="evenodd" clip-rule="evenodd" d="M708 756H780V684H708V756Z" fill="#E1E3EF"/>
</g>
</g>
<g id="Group 47">
<path id="Fill 25" fill-rule="evenodd" clip-rule="evenodd" d="M440.06 408.696C430.292 408.696 422.372 400.776 422.372 391.008C422.372 381.243 430.292 373.326 440.06 373.326C449.828 373.326 457.748 381.243 457.748 391.008C457.748 400.776 449.828 408.696 440.06 408.696ZM440.06 366C426.248 366 415.049 377.196 415.049 391.008C415.049 404.826 426.248 416.022 440.06 416.022C453.872 416.022 465.074 404.826 465.074 391.008C465.074 377.196 453.872 366 440.06 366Z" fill="#D8DBEA"/>
<path id="Fill 27" fill-rule="evenodd" clip-rule="evenodd" d="M507.847 625.494H372.28C358.78 625.494 347.83 614.55 347.83 601.047V476.379C347.83 427.704 387.658 387.879 436.33 387.879H443.794C492.472 387.879 532.294 427.704 532.294 476.379V601.047C532.294 614.55 521.35 625.494 507.847 625.494Z" fill="#D8DBEA"/>
<path id="Fill 29" fill-rule="evenodd" clip-rule="evenodd" d="M543.404 595.801H542.078C536.696 595.801 532.295 591.397 532.295 586.018V516.478C532.295 511.096 536.696 506.695 542.078 506.695H555.341C560.72 506.695 565.121 511.096 565.121 516.478V574.081C565.121 586.027 555.347 595.801 543.404 595.801Z" fill="#68A01A"/>
<path id="Fill 31" fill-rule="evenodd" clip-rule="evenodd" d="M338.049 595.801H336.723C324.774 595.801 315 586.027 315 574.081V516.478C315 511.096 319.401 506.695 324.783 506.695H338.049C343.428 506.695 347.829 511.096 347.829 516.478V586.018C347.829 591.397 343.428 595.801 338.049 595.801Z" fill="#68A01A"/>
<path id="Fill 33" fill-rule="evenodd" clip-rule="evenodd" d="M497.899 591.846L438.496 610.644L379.09 591.846V551.238H497.899V591.846Z" fill="#BEC0D6"/>
<path id="Fill 35" fill-rule="evenodd" clip-rule="evenodd" d="M403.13 602.651L400.343 605.429C398.027 607.736 394.277 607.736 391.958 605.429L389.174 602.651V576.68H403.13V602.651Z" fill="#68A01A"/>
<path id="Fill 37" fill-rule="evenodd" clip-rule="evenodd" d="M398.971 598.086C398.971 599.646 397.708 600.906 396.151 600.906C394.591 600.906 393.328 599.646 393.328 598.086C393.328 596.526 394.591 595.266 396.151 595.266C397.708 595.266 398.971 596.526 398.971 598.086Z" fill="#F7FFF6"/>
<path id="Fill 39" fill-rule="evenodd" clip-rule="evenodd" d="M482.852 602.651L480.065 605.429C477.749 607.736 473.999 607.736 471.68 605.429L468.896 602.651V576.68H482.852V602.651Z" fill="#68A01A"/>
<path id="Fill 41" fill-rule="evenodd" clip-rule="evenodd" d="M478.7 598.086C478.7 599.646 477.437 600.906 475.88 600.906C474.32 600.906 473.057 599.646 473.057 598.086C473.057 596.526 474.32 595.266 475.88 595.266C477.437 595.266 478.7 596.526 478.7 598.086Z" fill="#F7FFF6"/>
<path id="Fill 43" fill-rule="evenodd" clip-rule="evenodd" d="M523.432 480.964V494.188V521.641L366.838 446.641C377.248 420.031 403.261 401.086 433.432 401.086H446.689C486.019 401.086 523.432 441.601 523.432 480.964Z" fill="white"/>
<path id="Fill 45" fill-rule="evenodd" clip-rule="evenodd" d="M366.838 487.876V474.652V447.199L523.432 522.202C513.025 548.809 487.012 567.754 456.838 567.754H443.584C404.251 567.754 366.838 527.239 366.838 487.876Z" fill="#68A01A"/>
</g>
<g id="Bee">
<path id="Stroke 3" d="M490.437 126C386.516 134.797 348.321 222.759 379.611 274.033C401.69 310.21 439.103 359.102 508.843 347.374C578.58 335.643 584.456 271.103 547.729 262.324C511.001 253.548 380.157 294.492 394.945 389.08C405.619 457.328 498.142 477 498.142 477" stroke="#D7DAE9" stroke-width="2" stroke-dasharray="7"/>
<path id="Fill 5" fill-rule="evenodd" clip-rule="evenodd" d="M550.502 72C550.502 72 565.393 33.1008 566.963 17.9685C567.789 10.0615 554.685 -11.9535 539.35 8.41034C524.014 28.7742 531.011 53.7429 550.502 72Z" fill="#D8DBEA"/>
<path id="Fill 7_2" fill-rule="evenodd" clip-rule="evenodd" d="M497.662 29.636C480.217 23.7366 472.32 28.3363 468.955 37.5172C465.588 46.7012 470.288 64.1823 496.599 68.1672C522.914 72.1521 549 71.9992 549 71.9992C549 71.9992 515.107 35.5354 497.662 29.636Z" fill="#D8DBEA"/>
<path id="Fill 9" fill-rule="evenodd" clip-rule="evenodd" d="M547.548 79.7076C547.944 78.0816 548.468 76.5231 549.051 75C545.831 75.5087 542.554 76.2232 539.256 77.1906C535.678 78.2374 532.339 79.6106 529.198 81.1837C527.835 83.7595 526.731 86.5117 526.014 89.4669C521.593 107.659 532.029 125.996 549.563 132C551.462 131.624 553.37 131.188 555.281 130.63C560.621 129.065 565.547 126.995 570 124.596C552.876 117.083 543.021 98.3352 547.548 79.7076Z" fill="#D8DBEA"/>
<path id="Fill 11" fill-rule="evenodd" clip-rule="evenodd" d="M522.514 89.195C522.933 87.3978 523.502 85.6792 524.132 84C508.962 93.7183 500.467 108.801 501.868 117.597C492.174 121.763 486 125.273 486 125.273C486 125.273 493.314 124.716 503.971 122.668C509.68 131.009 525.503 136.595 543 134.592C527.15 126.395 518.204 107.742 522.514 89.195Z" fill="#D8DBEA"/>
<path id="Fill 13_2" fill-rule="evenodd" clip-rule="evenodd" d="M572.751 95.7902C568.733 94.8259 566.241 90.7892 567.209 86.7464C568.173 82.7314 572.235 80.2433 576.25 81.2076C580.287 82.1781 582.754 86.2302 581.792 90.2483C580.822 94.2881 576.791 96.7577 572.751 95.7902ZM590.356 90.3895C587.122 79.1878 572.253 73.4031 554.712 75.384C553.979 77.1197 553.355 78.9508 552.909 80.8472C549.003 97.474 558.026 114.199 573.327 120C586.096 111.877 593.265 100.376 590.356 90.3895Z" fill="#D8DBEA"/>
</g>
</g>
</svg>
