<!-- <svg width="127" height="61" viewBox="0 0 127 61" fill="none" xmlns="http://www.w3.org/2000/svg">
<path d="M0.667969 58.7097V52.2673H1.93359L4.57031 56.5696V52.2673H5.77881V58.7097H4.47363L1.87646 54.5085V58.7097H0.667969ZM7.11914 58.7097V52.2673H8.41992V58.7097H7.11914ZM12.6606 56.341V55.2556H15.4644V57.822C15.1919 58.0857 14.7964 58.3186 14.2778 58.5207C13.7622 58.7199 13.2393 58.8196 12.709 58.8196C12.0352 58.8196 11.4478 58.6789 10.9468 58.3977C10.4458 58.1135 10.0693 57.7092 9.81738 57.1848C9.56543 56.6574 9.43945 56.0847 9.43945 55.4665C9.43945 54.7956 9.58008 54.1994 9.86133 53.678C10.1426 53.1565 10.5542 52.7566 11.0962 52.4782C11.5093 52.2644 12.0234 52.1574 12.6387 52.1574C13.4385 52.1574 14.0625 52.3259 14.5107 52.6628C14.9619 52.9968 15.252 53.4597 15.3809 54.0515L14.0889 54.2932C13.998 53.9768 13.8267 53.7278 13.5747 53.5461C13.3257 53.3615 13.0137 53.2693 12.6387 53.2693C12.0703 53.2693 11.6177 53.4494 11.2808 53.8098C10.9468 54.1701 10.7798 54.7048 10.7798 55.4138C10.7798 56.1784 10.9497 56.7527 11.2896 57.1365C11.6294 57.5173 12.0747 57.7077 12.6255 57.7077C12.8979 57.7077 13.1704 57.655 13.4429 57.5495C13.7183 57.4411 13.9541 57.3108 14.1504 57.1584V56.341H12.6606ZM16.6685 58.7097V52.2673H21.4453V53.3572H17.9692V54.7854H21.2036V55.8708H17.9692V57.6242H21.5684V58.7097H16.6685ZM22.6758 58.7097V52.2673H25.4136C26.1021 52.2673 26.6016 52.3259 26.9121 52.4431C27.2256 52.5574 27.4761 52.7624 27.6636 53.0583C27.8511 53.3542 27.9448 53.6926 27.9448 54.0735C27.9448 54.5569 27.8027 54.9568 27.5186 55.2732C27.2344 55.5866 26.8096 55.7844 26.2441 55.8664C26.5254 56.0305 26.7568 56.2107 26.9385 56.407C27.123 56.6032 27.3706 56.9519 27.6812 57.4529L28.4678 58.7097H26.9121L25.9717 57.3078C25.6377 56.8069 25.4092 56.4919 25.2861 56.363C25.1631 56.2312 25.0327 56.1418 24.895 56.0949C24.7573 56.0451 24.5391 56.0202 24.2402 56.0202H23.9766V58.7097H22.6758ZM23.9766 54.9919H24.939C25.563 54.9919 25.9526 54.9656 26.1079 54.9128C26.2632 54.8601 26.3848 54.7693 26.4727 54.6404C26.5605 54.5115 26.6045 54.3503 26.6045 54.157C26.6045 53.9402 26.5459 53.7658 26.4287 53.634C26.3145 53.4992 26.1519 53.4143 25.9409 53.3791C25.8354 53.3645 25.519 53.3572 24.9917 53.3572H23.9766V54.9919ZM29.1357 58.7097V52.2673H30.4365V58.7097H29.1357ZM37.4897 58.7097H36.0747L35.5122 57.2463H32.937L32.4053 58.7097H31.0254L33.5347 52.2673H34.9102L37.4897 58.7097ZM35.0947 56.1609L34.207 53.7702L33.3369 56.1609H35.0947ZM40.0254 56.6135L41.291 56.4905C41.3672 56.9153 41.521 57.2273 41.7524 57.4265C41.9868 57.6257 42.3018 57.7253 42.6973 57.7253C43.1162 57.7253 43.4312 57.6374 43.6421 57.4616C43.856 57.2829 43.9629 57.0749 43.9629 56.8376C43.9629 56.6853 43.9175 56.5564 43.8267 56.4509C43.7388 56.3425 43.5835 56.2488 43.3608 56.1697C43.2085 56.1169 42.8613 56.0232 42.3193 55.8884C41.6221 55.7156 41.1328 55.5032 40.8516 55.2512C40.4561 54.8967 40.2583 54.4646 40.2583 53.9548C40.2583 53.6267 40.3506 53.3205 40.5352 53.0364C40.7227 52.7492 40.9907 52.531 41.3394 52.3816C41.6909 52.2322 42.1143 52.1574 42.6094 52.1574C43.418 52.1574 44.0259 52.3347 44.4331 52.6892C44.8433 53.0437 45.0586 53.5168 45.0791 54.1086L43.7783 54.1657C43.7227 53.8347 43.6025 53.5974 43.418 53.4538C43.2363 53.3074 42.9624 53.2341 42.5962 53.2341C42.2183 53.2341 41.9224 53.3117 41.7085 53.467C41.5708 53.5666 41.502 53.6999 41.502 53.8669C41.502 54.0193 41.5664 54.1496 41.6953 54.258C41.8594 54.3957 42.2578 54.5393 42.8906 54.6887C43.5234 54.8381 43.9907 54.9934 44.2925 55.1545C44.5972 55.3127 44.8345 55.531 45.0044 55.8093C45.1772 56.0847 45.2637 56.426 45.2637 56.8332C45.2637 57.2024 45.1611 57.5481 44.9561 57.8703C44.751 58.1926 44.4609 58.4328 44.0859 58.591C43.7109 58.7463 43.2437 58.824 42.6841 58.824C41.8696 58.824 41.2441 58.6365 40.8076 58.2615C40.3711 57.8835 40.1104 57.3342 40.0254 56.6135ZM47.8081 58.7097V53.3572H45.8965V52.2673H51.0161V53.3572H49.1089V58.7097H47.8081ZM57.0015 58.7097H55.5864L55.0239 57.2463H52.4487L51.917 58.7097H50.5371L53.0464 52.2673H54.4219L57.0015 58.7097ZM54.6064 56.1609L53.7188 53.7702L52.8486 56.1609H54.6064ZM57.7002 58.7097V52.2673H60.438C61.1265 52.2673 61.626 52.3259 61.9365 52.4431C62.25 52.5574 62.5005 52.7624 62.688 53.0583C62.8755 53.3542 62.9692 53.6926 62.9692 54.0735C62.9692 54.5569 62.8271 54.9568 62.543 55.2732C62.2588 55.5866 61.834 55.7844 61.2686 55.8664C61.5498 56.0305 61.7812 56.2107 61.9629 56.407C62.1475 56.6032 62.395 56.9519 62.7056 57.4529L63.4922 58.7097H61.9365L60.9961 57.3078C60.6621 56.8069 60.4336 56.4919 60.3105 56.363C60.1875 56.2312 60.0571 56.1418 59.9194 56.0949C59.7817 56.0451 59.5635 56.0202 59.2646 56.0202H59.001V58.7097H57.7002ZM59.001 54.9919H59.9634C60.5874 54.9919 60.9771 54.9656 61.1323 54.9128C61.2876 54.8601 61.4092 54.7693 61.4971 54.6404C61.585 54.5115 61.6289 54.3503 61.6289 54.157C61.6289 53.9402 61.5703 53.7658 61.4531 53.634C61.3389 53.4992 61.1763 53.4143 60.9653 53.3791C60.8599 53.3645 60.5435 53.3572 60.0161 53.3572H59.001V54.9919ZM65.6499 58.7097V53.3572H63.7383V52.2673H68.8579V53.3572H66.9507V58.7097H65.6499ZM69.6929 52.2673H70.9937V55.7566C70.9937 56.3103 71.0098 56.6692 71.042 56.8332C71.0977 57.0969 71.2295 57.3093 71.4375 57.4704C71.6484 57.6286 71.9355 57.7077 72.2988 57.7077C72.668 57.7077 72.9463 57.633 73.1338 57.4836C73.3213 57.3313 73.4341 57.1452 73.4722 56.9255C73.5103 56.7058 73.5293 56.341 73.5293 55.8313V52.2673H74.8301V55.6511C74.8301 56.4245 74.7949 56.9709 74.7246 57.2903C74.6543 57.6096 74.5239 57.8791 74.3335 58.0989C74.146 58.3186 73.894 58.4944 73.5776 58.6262C73.2612 58.7551 72.8481 58.8196 72.3384 58.8196C71.7231 58.8196 71.2559 58.7492 70.9365 58.6086C70.6201 58.4651 70.3696 58.2805 70.1851 58.0549C70.0005 57.8264 69.8789 57.5876 69.8203 57.3386C69.7354 56.9695 69.6929 56.4245 69.6929 55.7038V52.2673ZM76.2056 58.7097V52.2673H78.293C79.084 52.2673 79.5996 52.2995 79.8398 52.364C80.209 52.4607 80.5181 52.6716 80.7671 52.9968C81.0161 53.3191 81.1406 53.7365 81.1406 54.2492C81.1406 54.6448 81.0688 54.9773 80.9253 55.2468C80.7817 55.5163 80.5986 55.7287 80.376 55.884C80.1562 56.0364 79.9321 56.1374 79.7036 56.1872C79.3931 56.2488 78.9434 56.2795 78.3545 56.2795H77.5063V58.7097H76.2056ZM77.5063 53.3572V55.1853H78.2183C78.731 55.1853 79.0737 55.1516 79.2466 55.0842C79.4194 55.0168 79.5542 54.9114 79.6509 54.7678C79.7505 54.6242 79.8003 54.4573 79.8003 54.2668C79.8003 54.0324 79.7314 53.8391 79.5938 53.6867C79.4561 53.5344 79.2817 53.4392 79.0708 53.4011C78.9155 53.3718 78.6035 53.3572 78.1348 53.3572H77.5063ZM84.5464 58.7097V52.2673H86.6338C87.4248 52.2673 87.9404 52.2995 88.1807 52.364C88.5498 52.4607 88.8589 52.6716 89.1079 52.9968C89.3569 53.3191 89.4814 53.7365 89.4814 54.2492C89.4814 54.6448 89.4097 54.9773 89.2661 55.2468C89.1226 55.5163 88.9395 55.7287 88.7168 55.884C88.4971 56.0364 88.2729 56.1374 88.0444 56.1872C87.7339 56.2488 87.2842 56.2795 86.6953 56.2795H85.8472V58.7097H84.5464ZM85.8472 53.3572V55.1853H86.5591C87.0718 55.1853 87.4146 55.1516 87.5874 55.0842C87.7603 55.0168 87.895 54.9114 87.9917 54.7678C88.0913 54.6242 88.1411 54.4573 88.1411 54.2668C88.1411 54.0324 88.0723 53.8391 87.9346 53.6867C87.7969 53.5344 87.6226 53.4392 87.4116 53.4011C87.2563 53.3718 86.9443 53.3572 86.4756 53.3572H85.8472ZM90.2856 55.5281C90.2856 54.8718 90.3838 54.321 90.5801 53.8757C90.7266 53.5476 90.9258 53.2532 91.1777 52.9924C91.4326 52.7317 91.7109 52.5383 92.0127 52.4123C92.4141 52.2424 92.877 52.1574 93.4014 52.1574C94.3506 52.1574 95.1094 52.4519 95.6777 53.0407C96.249 53.6296 96.5347 54.4485 96.5347 55.4973C96.5347 56.5373 96.252 57.3518 95.6865 57.9407C95.1211 58.5266 94.3652 58.8196 93.4189 58.8196C92.4609 58.8196 91.6992 58.5281 91.1338 57.945C90.5684 57.3591 90.2856 56.5534 90.2856 55.5281ZM91.626 55.4841C91.626 56.2136 91.7944 56.7673 92.1313 57.1452C92.4683 57.5202 92.896 57.7077 93.4146 57.7077C93.9331 57.7077 94.3579 57.5217 94.689 57.1496C95.0229 56.7746 95.1899 56.2136 95.1899 55.4665C95.1899 54.7282 95.0273 54.1775 94.7021 53.8142C94.3799 53.4509 93.9507 53.2693 93.4146 53.2693C92.8784 53.2693 92.4463 53.4538 92.1182 53.823C91.79 54.1892 91.626 54.7429 91.626 55.4841ZM97.5586 58.7097V52.2673H100.296C100.985 52.2673 101.484 52.3259 101.795 52.4431C102.108 52.5574 102.359 52.7624 102.546 53.0583C102.734 53.3542 102.828 53.6926 102.828 54.0735C102.828 54.5569 102.686 54.9568 102.401 55.2732C102.117 55.5866 101.692 55.7844 101.127 55.8664C101.408 56.0305 101.64 56.2107 101.821 56.407C102.006 56.6032 102.253 56.9519 102.564 57.4529L103.351 58.7097H101.795L100.854 57.3078C100.521 56.8069 100.292 56.4919 100.169 56.363C100.046 56.2312 99.9155 56.1418 99.7778 56.0949C99.6401 56.0451 99.4219 56.0202 99.123 56.0202H98.8594V58.7097H97.5586ZM98.8594 54.9919H99.8218C100.446 54.9919 100.835 54.9656 100.991 54.9128C101.146 54.8601 101.268 54.7693 101.355 54.6404C101.443 54.5115 101.487 54.3503 101.487 54.157C101.487 53.9402 101.429 53.7658 101.312 53.634C101.197 53.4992 101.035 53.4143 100.824 53.3791C100.718 53.3645 100.402 53.3572 99.8745 53.3572H98.8594V54.9919ZM105.508 58.7097V53.3572H103.597V52.2673H108.716V53.3572H106.809V58.7097H105.508ZM114.702 58.7097H113.287L112.724 57.2463H110.149L109.617 58.7097H108.237L110.747 52.2673H112.122L114.702 58.7097ZM112.307 56.1609L111.419 53.7702L110.549 56.1609H112.307ZM115.431 58.7097V52.32H116.732V57.6242H119.966V58.7097H115.431Z" fill="black"/>
<path d="M120.881 0.0292468L110.412 2.60709C110.278 2.63648 110.157 2.71155 110.072 2.81956C109.987 2.92756 109.941 3.06182 109.943 3.19951C109.946 3.3372 109.996 3.46982 110.085 3.57482C110.174 3.67983 110.297 3.75073 110.432 3.77548C111.581 4.04666 115.317 4.97736 116.157 5.85115C116.997 6.72493 117.771 10.4946 117.995 11.653C118.016 11.7584 118.064 11.8564 118.136 11.9371C118.207 12.0177 118.298 12.0781 118.4 12.1121C118.502 12.1461 118.611 12.1525 118.716 12.1307C118.822 12.1088 118.919 12.0595 118.999 11.9877C119.067 11.9113 119.117 11.8211 119.147 11.7233L122.16 1.36503C122.211 1.1852 122.214 0.995094 122.169 0.813591C122.124 0.632087 122.033 0.46552 121.903 0.330448C121.774 0.195377 121.612 0.0965029 121.432 0.0436627C121.253 -0.00917758 121.063 -0.0141493 120.881 0.0292468Z" fill="#1B834D"/>
<path d="M119.666 2.25893L115.511 3.2298C115.472 3.23875 115.437 3.25716 115.407 3.28337C115.378 3.31292 115.357 3.34977 115.347 3.39006C115.337 3.43035 115.338 3.4726 115.35 3.51234C115.362 3.55208 115.385 3.58785 115.415 3.6159C115.446 3.64394 115.484 3.66323 115.524 3.67172C115.959 3.76546 117.178 4.29107 117.499 4.61581C117.821 4.94055 118.34 6.16251 118.43 6.59773C118.438 6.63863 118.457 6.6766 118.485 6.70761C118.513 6.73862 118.549 6.76152 118.588 6.77388C118.628 6.78623 118.671 6.78758 118.711 6.77779C118.752 6.768 118.789 6.74743 118.819 6.71826C118.845 6.68804 118.864 6.65268 118.875 6.61448L120.014 2.52675C120.084 2.2288 119.957 2.18193 119.666 2.25893Z" fill="#1B744D"/>
<path d="M0.00363159 46.9928V48.275H8.94236V47.6322C6.21052 47.5363 3.48427 47.3488 0.763588 47.0698C0.509152 47.053 0.25472 47.0263 0.00363159 46.9928Z" fill="#1B834D"/>
<path d="M48.9157 31.5626C49.8954 32.5433 51.0749 33.3015 52.374 33.7855C53.76 34.3391 55.5924 34.6158 57.8711 34.6158H65.1293C69.5149 32.8459 73.8348 30.9254 78.0888 28.8542C76.5517 28.2698 74.915 27.9923 73.2712 28.0373H58.3566C57.9431 28.0524 57.5295 28.0096 57.1279 27.9101C56.8591 27.8426 56.6079 27.7181 56.3914 27.5452C56.1186 27.3307 55.8994 27.0557 55.7513 26.742C55.6031 26.4282 55.53 26.0842 55.5377 25.7373C55.5286 25.4119 55.5863 25.088 55.7073 24.7857C55.8282 24.4834 56.0097 24.2091 56.2407 23.9797C56.4625 23.7665 56.7273 23.6033 57.0174 23.501C57.4511 23.3693 57.9036 23.3105 58.3566 23.3269H88.0352V23.742L88.7918 23.3269C90.0707 22.6238 91.3417 21.9107 92.605 21.1876C95.377 19.6007 98.1189 17.9636 100.831 16.2763C101.858 15.6369 102.88 14.9941 103.897 14.3379H57.8544C55.5779 14.3379 53.7533 14.6136 52.3807 15.1648C51.0968 15.6599 49.9328 16.4222 48.9659 17.4012C48.0645 18.3331 47.3417 19.4224 46.8333 20.6151C46.3089 21.8363 46.0433 23.1529 46.0533 24.4819C46.039 25.8162 46.2952 27.1395 46.8065 28.3721C47.3052 29.5574 48.0204 30.6394 48.9157 31.5626Z" fill="#1B834D"/>
<path d="M81.4565 31.1006L81.3327 30.9767C78.5138 32.2801 75.6704 33.5211 72.8024 34.6995C72.9361 34.7196 73.0682 34.7498 73.1974 34.7899C73.536 34.9017 73.8388 35.1016 74.0745 35.3691C74.3088 35.6066 74.4919 35.8895 74.6128 36.2004C74.7337 36.5113 74.7898 36.8436 74.7776 37.1769C74.7967 37.6512 74.6633 38.119 74.397 38.5119C74.1307 38.9047 73.7455 39.2019 73.2978 39.3597C72.7711 39.5321 72.2179 39.6091 71.6641 39.5873H59.652L59.5416 39.6242C55.7618 40.8796 51.942 42.0212 48.0819 43.0055C46.0196 43.5278 43.954 44.0266 41.8783 44.4786C40.0638 44.877 38.2426 45.2419 36.4147 45.5599C34.8814 45.8255 33.3447 46.0699 31.8047 46.2931C31.0414 46.4069 30.2714 46.514 29.5047 46.6279C30.1525 47.3188 30.9353 47.8692 31.8047 48.2449L31.8917 48.2817H73.2711C75.0183 48.3325 76.756 48.0071 78.3665 47.3276C79.6999 46.733 80.8906 45.8597 81.8583 44.7665C82.6345 43.8541 83.2533 42.8188 83.6895 41.7032C84.6237 39.3303 84.5889 36.6854 83.5925 34.3379C83.0829 33.1381 82.3591 32.0411 81.4565 31.1006Z" fill="#1B834D"/>
<path d="M36.0331 43.588C38.1121 43.1662 40.1744 42.6841 42.2299 42.1585C42.2299 42.0079 42.2299 41.8539 42.2299 41.6965V14.3279H33.3481V36.273C33.3481 36.8756 33.1138 37.1769 32.6451 37.1769C32.491 37.1787 32.3379 37.1526 32.1931 37.0999C32.0314 37.0267 31.8925 36.911 31.7914 36.7651L15.2128 16.9392C14.3624 15.8179 13.2481 14.9241 11.9691 14.3371C10.69 13.7501 9.28574 13.4882 7.88107 13.5746C6.81172 13.5663 5.74658 13.7095 4.71736 13.9998C3.78646 14.2645 2.92789 14.7373 2.20648 15.3825C1.47747 16.0594 0.920777 16.9008 0.582774 17.8364C0.1667 19.0184 -0.0295848 20.2665 0.00360369 21.5191V46.0186C0.284822 46.0453 0.569382 46.0688 0.853948 46.0889C3.54561 46.2875 6.24174 46.3991 8.94234 46.4237V25.2753C8.93459 25.1473 8.95284 25.019 8.99599 24.8981C9.03914 24.7773 9.1063 24.6665 9.19342 24.5723C9.27133 24.4914 9.36502 24.4274 9.46867 24.3842C9.57233 24.341 9.68376 24.3196 9.79604 24.3212C9.95445 24.3349 10.1081 24.3823 10.2467 24.4602C10.3853 24.5382 10.5056 24.6449 10.5995 24.7732L28.0953 45.0042C29.334 44.8212 30.5705 44.6181 31.8047 44.3949C33.2175 44.1471 34.627 43.8782 36.0331 43.588Z" fill="#1B834D"/>
<path d="M125.692 22.1116C125.046 20.5734 124.108 19.175 122.93 17.9938C121.744 16.8288 120.334 15.9175 118.785 15.3155C117.162 14.6616 115.146 14.3357 112.735 14.3379H111.731C108.83 16.1859 105.886 17.9793 102.899 19.7179C98.0317 22.5524 93.0758 25.2363 88.0317 27.7695V48.285H97.1211V39.7481H112.739C115.35 39.7481 117.543 39.3374 119.317 38.5161C121.024 37.7473 122.534 36.6029 123.736 35.1682C124.671 34.0349 125.409 32.7527 125.919 31.3751C126.44 29.9834 126.704 28.5089 126.699 27.0229C126.7 25.3344 126.357 23.6634 125.692 22.1116ZM116.853 29.8117C116.47 30.3271 115.959 30.7333 115.37 30.9901C114.599 31.3055 113.769 31.4516 112.936 31.4186H97.1244V24.0534C97.1244 23.5847 97.3476 23.3503 97.794 23.3503H112.96C113.773 23.3224 114.584 23.4591 115.343 23.7521C115.923 23.9896 116.433 24.3696 116.826 24.8568C117.394 25.5886 117.695 26.492 117.68 27.418C117.679 28.2795 117.39 29.116 116.86 29.7949L116.853 29.8117Z" fill="#1B834D"/>
</svg> -->
<svg version="1.0" xmlns="http://www.w3.org/2000/svg"
 width="110px" height="80px" viewBox="0 0 1877.000000 1414.000000"
 preserveAspectRatio="xMidYMid meet">

<g transform="translate(0.000000,1414.000000) scale(0.100000,-0.100000)"
fill="#007A27" stroke="none">
<path d="M17650 13417 c-19 -8 -556 -272 -1193 -587 l-1157 -574 -12 -37 c-9
-32 -8 -42 5 -63 21 -32 2 -30 682 -61 640 -30 691 -37 855 -120 173 -88 339
-257 411 -419 11 -25 103 -276 205 -558 101 -282 196 -530 209 -550 14 -21 37
-41 51 -44 70 -18 158 49 169 128 3 24 55 592 116 1263 118 1308 121 1364 80
1443 -34 66 -97 128 -159 159 -44 22 -72 28 -141 30 -55 2 -99 -2 -121 -10z"/>
<path d="M2687 11099 c-1023 -62 -1756 -556 -2027 -1367 -86 -256 -115 -477
-107 -791 6 -222 20 -330 68 -510 195 -736 795 -1261 1622 -1420 298 -58 178
-54 2147 -61 l1815 -5 78 -22 c230 -65 379 -209 428 -413 20 -86 16 -223 -9
-306 -66 -216 -244 -340 -537 -374 -60 -6 -1005 -10 -2797 -10 l-2708 0 0
-745 c0 -410 3 -745 8 -745 4 0 124 24 267 54 338 71 849 169 1865 360 932
175 1461 278 1920 372 1339 276 2391 536 3427 846 l271 81 7 84 c9 100 -8 395
-31 549 -136 926 -740 1466 -1774 1589 -74 8 -148 18 -165 22 -16 3 -849 8
-1850 12 l-1820 6 -59 23 c-208 78 -310 237 -310 482 0 248 104 406 314 482
l65 23 3033 3 3032 2 0 -1565 c0 -861 2 -1565 4 -1565 2 0 102 33 222 74 411
140 955 346 1337 507 l147 62 0 669 c0 387 4 668 9 666 5 -1 217 -190 472
-418 255 -228 474 -424 487 -434 l24 -19 87 42 c242 120 751 404 1036 581 237
146 516 332 513 341 -3 10 -2696 2490 -2808 2587 -101 87 -176 137 -276 184
-171 80 202 72 -3759 74 -1947 1 -3597 -2 -3668 -7z"/>
<path d="M14740 10293 l0 -808 176 175 c299 297 577 605 821 910 106 132 368
481 384 512 9 17 -17 18 -686 18 l-695 0 0 -807z"/>
<path d="M16355 10526 c-422 -567 -996 -1193 -1512 -1649 l-103 -90 -2 -968
-3 -967 -564 519 c-310 285 -567 519 -571 519 -4 0 -77 -47 -162 -105 -404
-271 -966 -606 -1371 -815 -48 -25 -86 -48 -84 -51 1 -3 632 -570 1402 -1259
770 -689 1436 -1286 1480 -1326 169 -153 281 -225 420 -271 68 -22 104 -27
231 -31 228 -7 364 27 517 128 198 131 322 327 390 615 l21 90 3 2535 c2 1394
2 2695 1 2891 l-3 356 -90 -121z"/>
<path d="M10260 6146 c-349 -141 -689 -266 -1105 -408 l-290 -99 -3 -804 -2
-805 855 0 855 0 0 1120 c0 616 -1 1120 -2 1119 -2 -1 -140 -56 -308 -123z"/>
<path d="M8260 5454 c-254 -81 -904 -259 -1420 -389 -1071 -269 -2134 -492
-4080 -857 l-925 -173 2220 -3 c1954 -2 2239 -1 2375 13 836 84 1450 467 1763
1100 51 103 127 291 127 315 0 12 -3 12 -60 -6z"/>
<path d="M830 2845 c-211 -58 -351 -206 -381 -402 -19 -126 16 -267 85 -345
79 -89 174 -137 456 -233 250 -85 285 -101 345 -156 58 -53 79 -110 72 -189
-14 -153 -127 -238 -333 -248 -231 -11 -395 75 -479 249 l-31 66 -90 -53 c-49
-29 -93 -55 -99 -57 -15 -6 56 -144 101 -199 82 -98 204 -173 343 -210 108
-29 314 -29 424 1 265 71 415 271 393 523 -10 109 -39 173 -115 249 -83 83
-202 143 -446 225 -93 31 -189 65 -213 75 -151 65 -215 175 -177 304 33 115
132 183 280 192 178 12 331 -73 409 -224 l21 -43 98 56 97 56 -32 59 c-70 128
-198 236 -338 286 -64 23 -95 27 -205 30 -93 2 -146 -1 -185 -12z"/>
<path d="M10659 2827 c-95 -63 -89 -199 11 -249 127 -64 263 79 190 200 -43
70 -135 93 -201 49z"/>
<path d="M14845 2831 c-99 -60 -92 -214 11 -257 65 -27 123 -13 173 40 33 35
40 117 13 165 -36 66 -133 91 -197 52z"/>
<path d="M9010 1955 l0 -875 115 0 115 0 2 652 3 652 448 -652 449 -652 94 0
94 0 0 875 0 875 -115 0 -115 0 -2 -651 -3 -651 -449 651 -449 651 -94 0 -93
0 0 -875z"/>
<path d="M2028 2647 l-97 -30 -3 -141 -3 -141 -122 -3 -123 -3 0 -104 0 -104
123 -3 122 -3 5 -410 5 -410 26 -55 c14 -30 39 -68 55 -84 68 -68 207 -102
366 -90 l88 7 0 96 0 96 -112 0 c-135 0 -169 14 -199 78 -17 39 -19 70 -19
410 l0 367 165 0 165 0 0 105 0 105 -165 0 -165 0 0 175 c0 96 -3 175 -7 174
-5 -1 -52 -15 -105 -32z"/>
<path d="M5163 2647 l-103 -31 0 -143 0 -143 -125 0 -125 0 0 -105 0 -105 124
0 125 0 3 -397 c5 -441 7 -461 71 -545 65 -85 206 -125 390 -112 l87 7 0 96 0
96 -112 0 c-124 0 -156 10 -192 58 -20 28 -21 41 -24 413 l-3 384 166 0 165 0
0 105 0 105 -165 0 -165 0 0 175 c0 96 -3 175 -7 174 -5 -1 -54 -15 -110 -32z"/>
<path d="M3033 2346 c-216 -50 -407 -239 -469 -466 -29 -103 -24 -282 9 -385
103 -315 400 -498 716 -441 119 21 200 64 289 152 l72 72 0 -99 0 -99 110 0
110 0 0 625 0 625 -110 0 -110 0 0 -106 0 -107 -40 51 c-50 63 -155 134 -240
163 -83 28 -247 35 -337 15z m340 -226 c239 -92 347 -387 229 -627 -87 -180
-308 -279 -505 -228 -207 54 -337 221 -337 434 0 210 124 380 320 437 69 20
222 12 293 -16z"/>
<path d="M7723 2346 c-115 -27 -233 -102 -306 -196 l-27 -35 0 108 0 107 -110
0 -110 0 0 -880 0 -880 110 0 110 0 0 355 0 355 73 -74 c87 -89 170 -131 296
-153 273 -48 542 89 666 340 181 367 14 805 -357 934 -91 32 -250 40 -345 19z
m309 -238 c208 -104 303 -343 223 -568 -75 -211 -307 -333 -528 -275 -83 21
-133 50 -197 111 -246 234 -154 649 167 755 45 15 81 18 159 16 93 -2 106 -5
176 -39z"/>
<path d="M11542 2345 c-178 -39 -349 -175 -428 -342 -51 -109 -59 -149 -59
-298 1 -126 3 -147 27 -213 70 -194 208 -335 391 -400 86 -31 258 -42 351 -22
112 23 246 110 314 205 l21 30 1 -121 c0 -94 -5 -137 -20 -186 -47 -154 -175
-243 -365 -255 -197 -13 -345 50 -435 184 l-15 23 -92 -52 -92 -52 22 -40 c58
-103 204 -203 357 -243 92 -24 321 -24 410 1 219 60 379 213 425 407 12 54 15
169 15 712 l0 647 -105 0 -105 0 0 -107 0 -108 -27 35 c-73 94 -187 167 -304
195 -78 18 -202 18 -287 0z m261 -200 c128 -27 253 -119 308 -226 64 -126 63
-293 -2 -421 -30 -58 -119 -150 -177 -181 -243 -132 -545 -22 -640 234 -95
256 57 536 321 594 81 18 108 18 190 0z"/>
<path d="M13075 2344 c-234 -46 -427 -239 -480 -479 -23 -104 -17 -292 13
-385 61 -187 217 -343 400 -400 269 -84 566 -17 728 163 73 82 74 76 -28 133
l-90 50 -61 -61 c-45 -45 -78 -68 -120 -84 -209 -78 -445 -20 -561 137 -34 47
-76 139 -76 167 0 13 71 15 524 15 l523 0 6 50 c3 28 2 86 -3 130 -46 406
-372 644 -775 564z m305 -213 c133 -50 216 -153 254 -313 l6 -28 -421 0 -422
0 6 35 c24 145 172 292 327 325 68 14 187 5 250 -19z"/>
<path d="M15722 2345 c-107 -23 -207 -80 -293 -165 -85 -84 -135 -167 -171
-280 -30 -98 -32 -291 -4 -385 97 -322 396 -516 713 -463 127 22 209 64 301
155 l72 72 0 -99 0 -100 105 0 105 0 0 625 0 625 -105 0 -105 0 0 -107 c-1
-98 -2 -106 -15 -88 -134 180 -367 261 -603 210z m309 -215 c262 -81 386 -391
258 -642 -33 -64 -124 -154 -191 -187 -236 -119 -528 -12 -618 226 -96 255 23
518 275 605 70 24 195 23 276 -2z"/>
<path d="M4610 2334 c-30 -8 -73 -26 -95 -39 -46 -26 -119 -102 -137 -140 -21
-46 -28 -26 -28 75 l0 100 -105 0 -105 0 0 -625 0 -625 104 0 104 0 4 373 c4
319 7 380 22 426 47 143 138 218 300 243 l76 12 0 108 0 108 -42 -1 c-24 0
-68 -7 -98 -15z"/>
<path d="M14522 2334 c-101 -27 -162 -69 -219 -151 l-38 -56 -3 102 -3 101
-104 0 -105 0 0 -625 0 -625 105 0 105 0 0 348 c0 377 8 447 54 526 32 54 96
113 150 137 23 10 74 23 114 30 l72 12 0 108 0 109 -37 -1 c-21 0 -62 -7 -91
-15z"/>
<path d="M5793 1883 c4 -491 4 -494 67 -612 65 -121 185 -201 334 -222 181
-25 339 27 444 146 22 25 42 45 46 45 3 0 6 -36 6 -80 l0 -80 105 0 105 0 0
625 0 625 -104 0 -104 0 -4 -387 c-4 -366 -5 -392 -26 -453 -32 -96 -84 -158
-166 -200 -66 -33 -74 -35 -175 -35 -96 0 -111 3 -157 27 -65 34 -107 82 -133
153 -20 53 -21 73 -21 475 l0 420 -111 0 -110 0 4 -447z"/>
<path d="M10630 1705 l0 -625 105 0 105 0 0 625 0 625 -105 0 -105 0 0 -625z"/>
<path d="M14810 1705 l0 -625 105 0 105 0 0 625 0 625 -105 0 -105 0 0 -625z"/>
</g>
</svg>