<svg width="126" height="63" viewBox="0 0 126 63" fill="none" xmlns="http://www.w3.org/2000/svg">
<path d="M0.667969 60V53.5576H1.93359L4.57031 57.8599V53.5576H5.77881V60H4.47363L1.87646 55.7988V60H0.667969ZM7.11914 60V53.5576H8.41992V60H7.11914ZM12.6606 57.6313V56.5459H15.4644V59.1123C15.1919 59.376 14.7964 59.6089 14.2778 59.811C13.7622 60.0103 13.2393 60.1099 12.709 60.1099C12.0352 60.1099 11.4478 59.9692 10.9468 59.688C10.4458 59.4038 10.0693 58.9995 9.81738 58.4751C9.56543 57.9478 9.43945 57.375 9.43945 56.7568C9.43945 56.0859 9.58008 55.4897 9.86133 54.9683C10.1426 54.4468 10.5542 54.0469 11.0962 53.7686C11.5093 53.5547 12.0234 53.4478 12.6387 53.4478C13.4385 53.4478 14.0625 53.6162 14.5107 53.9531C14.9619 54.2871 15.252 54.75 15.3809 55.3418L14.0889 55.5835C13.998 55.2671 13.8267 55.0181 13.5747 54.8364C13.3257 54.6519 13.0137 54.5596 12.6387 54.5596C12.0703 54.5596 11.6177 54.7397 11.2808 55.1001C10.9468 55.4604 10.7798 55.9951 10.7798 56.7041C10.7798 57.4688 10.9497 58.043 11.2896 58.4268C11.6294 58.8076 12.0747 58.998 12.6255 58.998C12.8979 58.998 13.1704 58.9453 13.4429 58.8398C13.7183 58.7314 13.9541 58.6011 14.1504 58.4487V57.6313H12.6606ZM16.6685 60V53.5576H21.4453V54.6475H17.9692V56.0757H21.2036V57.1611H17.9692V58.9146H21.5684V60H16.6685ZM22.6758 60V53.5576H25.4136C26.1021 53.5576 26.6016 53.6162 26.9121 53.7334C27.2256 53.8477 27.4761 54.0527 27.6636 54.3486C27.8511 54.6445 27.9448 54.9829 27.9448 55.3638C27.9448 55.8472 27.8027 56.2471 27.5186 56.5635C27.2344 56.877 26.8096 57.0747 26.2441 57.1567C26.5254 57.3208 26.7568 57.501 26.9385 57.6973C27.123 57.8936 27.3706 58.2422 27.6812 58.7432L28.4678 60H26.9121L25.9717 58.5981C25.6377 58.0972 25.4092 57.7822 25.2861 57.6533C25.1631 57.5215 25.0327 57.4321 24.895 57.3853C24.7573 57.3354 24.5391 57.3105 24.2402 57.3105H23.9766V60H22.6758ZM23.9766 56.2822H24.939C25.563 56.2822 25.9526 56.2559 26.1079 56.2031C26.2632 56.1504 26.3848 56.0596 26.4727 55.9307C26.5605 55.8018 26.6045 55.6406 26.6045 55.4473C26.6045 55.2305 26.5459 55.0562 26.4287 54.9243C26.3145 54.7896 26.1519 54.7046 25.9409 54.6694C25.8354 54.6548 25.519 54.6475 24.9917 54.6475H23.9766V56.2822ZM29.1357 60V53.5576H30.4365V60H29.1357ZM37.4897 60H36.0747L35.5122 58.5366H32.937L32.4053 60H31.0254L33.5347 53.5576H34.9102L37.4897 60ZM35.0947 57.4512L34.207 55.0605L33.3369 57.4512H35.0947ZM40.0254 57.9038L41.291 57.7808C41.3672 58.2056 41.521 58.5176 41.7524 58.7168C41.9868 58.916 42.3018 59.0156 42.6973 59.0156C43.1162 59.0156 43.4312 58.9277 43.6421 58.752C43.856 58.5732 43.9629 58.3652 43.9629 58.1279C43.9629 57.9756 43.9175 57.8467 43.8267 57.7412C43.7388 57.6328 43.5835 57.5391 43.3608 57.46C43.2085 57.4072 42.8613 57.3135 42.3193 57.1787C41.6221 57.0059 41.1328 56.7935 40.8516 56.5415C40.4561 56.187 40.2583 55.7549 40.2583 55.2451C40.2583 54.917 40.3506 54.6108 40.5352 54.3267C40.7227 54.0396 40.9907 53.8213 41.3394 53.6719C41.6909 53.5225 42.1143 53.4478 42.6094 53.4478C43.418 53.4478 44.0259 53.625 44.4331 53.9795C44.8433 54.334 45.0586 54.8071 45.0791 55.3989L43.7783 55.4561C43.7227 55.125 43.6025 54.8877 43.418 54.7441C43.2363 54.5977 42.9624 54.5244 42.5962 54.5244C42.2183 54.5244 41.9224 54.6021 41.7085 54.7573C41.5708 54.8569 41.502 54.9902 41.502 55.1572C41.502 55.3096 41.5664 55.4399 41.6953 55.5483C41.8594 55.686 42.2578 55.8296 42.8906 55.979C43.5234 56.1284 43.9907 56.2837 44.2925 56.4448C44.5972 56.603 44.8345 56.8213 45.0044 57.0996C45.1772 57.375 45.2637 57.7163 45.2637 58.1235C45.2637 58.4927 45.1611 58.8384 44.9561 59.1606C44.751 59.4829 44.4609 59.7231 44.0859 59.8813C43.7109 60.0366 43.2437 60.1143 42.6841 60.1143C41.8696 60.1143 41.2441 59.9268 40.8076 59.5518C40.3711 59.1738 40.1104 58.6245 40.0254 57.9038ZM47.8081 60V54.6475H45.8965V53.5576H51.0161V54.6475H49.1089V60H47.8081ZM57.0015 60H55.5864L55.0239 58.5366H52.4487L51.917 60H50.5371L53.0464 53.5576H54.4219L57.0015 60ZM54.6064 57.4512L53.7188 55.0605L52.8486 57.4512H54.6064ZM57.7002 60V53.5576H60.438C61.1265 53.5576 61.626 53.6162 61.9365 53.7334C62.25 53.8477 62.5005 54.0527 62.688 54.3486C62.8755 54.6445 62.9692 54.9829 62.9692 55.3638C62.9692 55.8472 62.8271 56.2471 62.543 56.5635C62.2588 56.877 61.834 57.0747 61.2686 57.1567C61.5498 57.3208 61.7812 57.501 61.9629 57.6973C62.1475 57.8936 62.395 58.2422 62.7056 58.7432L63.4922 60H61.9365L60.9961 58.5981C60.6621 58.0972 60.4336 57.7822 60.3105 57.6533C60.1875 57.5215 60.0571 57.4321 59.9194 57.3853C59.7817 57.3354 59.5635 57.3105 59.2646 57.3105H59.001V60H57.7002ZM59.001 56.2822H59.9634C60.5874 56.2822 60.9771 56.2559 61.1323 56.2031C61.2876 56.1504 61.4092 56.0596 61.4971 55.9307C61.585 55.8018 61.6289 55.6406 61.6289 55.4473C61.6289 55.2305 61.5703 55.0562 61.4531 54.9243C61.3389 54.7896 61.1763 54.7046 60.9653 54.6694C60.8599 54.6548 60.5435 54.6475 60.0161 54.6475H59.001V56.2822ZM65.6499 60V54.6475H63.7383V53.5576H68.8579V54.6475H66.9507V60H65.6499ZM69.6929 53.5576H70.9937V57.0469C70.9937 57.6006 71.0098 57.9595 71.042 58.1235C71.0977 58.3872 71.2295 58.5996 71.4375 58.7607C71.6484 58.9189 71.9355 58.998 72.2988 58.998C72.668 58.998 72.9463 58.9233 73.1338 58.7739C73.3213 58.6216 73.4341 58.4355 73.4722 58.2158C73.5103 57.9961 73.5293 57.6313 73.5293 57.1216V53.5576H74.8301V56.9414C74.8301 57.7148 74.7949 58.2612 74.7246 58.5806C74.6543 58.8999 74.5239 59.1694 74.3335 59.3892C74.146 59.6089 73.894 59.7847 73.5776 59.9165C73.2612 60.0454 72.8481 60.1099 72.3384 60.1099C71.7231 60.1099 71.2559 60.0396 70.9365 59.8989C70.6201 59.7554 70.3696 59.5708 70.1851 59.3452C70.0005 59.1167 69.8789 58.8779 69.8203 58.6289C69.7354 58.2598 69.6929 57.7148 69.6929 56.9941V53.5576ZM76.2056 60V53.5576H78.293C79.084 53.5576 79.5996 53.5898 79.8398 53.6543C80.209 53.751 80.5181 53.9619 80.7671 54.2871C81.0161 54.6094 81.1406 55.0269 81.1406 55.5396C81.1406 55.9351 81.0688 56.2676 80.9253 56.5371C80.7817 56.8066 80.5986 57.019 80.376 57.1743C80.1562 57.3267 79.9321 57.4277 79.7036 57.4775C79.3931 57.5391 78.9434 57.5698 78.3545 57.5698H77.5063V60H76.2056ZM77.5063 54.6475V56.4756H78.2183C78.731 56.4756 79.0737 56.4419 79.2466 56.3745C79.4194 56.3071 79.5542 56.2017 79.6509 56.0581C79.7505 55.9146 79.8003 55.7476 79.8003 55.5571C79.8003 55.3228 79.7314 55.1294 79.5938 54.9771C79.4561 54.8247 79.2817 54.7295 79.0708 54.6914C78.9155 54.6621 78.6035 54.6475 78.1348 54.6475H77.5063ZM84.5464 60V53.5576H86.6338C87.4248 53.5576 87.9404 53.5898 88.1807 53.6543C88.5498 53.751 88.8589 53.9619 89.1079 54.2871C89.3569 54.6094 89.4814 55.0269 89.4814 55.5396C89.4814 55.9351 89.4097 56.2676 89.2661 56.5371C89.1226 56.8066 88.9395 57.019 88.7168 57.1743C88.4971 57.3267 88.2729 57.4277 88.0444 57.4775C87.7339 57.5391 87.2842 57.5698 86.6953 57.5698H85.8472V60H84.5464ZM85.8472 54.6475V56.4756H86.5591C87.0718 56.4756 87.4146 56.4419 87.5874 56.3745C87.7603 56.3071 87.895 56.2017 87.9917 56.0581C88.0913 55.9146 88.1411 55.7476 88.1411 55.5571C88.1411 55.3228 88.0723 55.1294 87.9346 54.9771C87.7969 54.8247 87.6226 54.7295 87.4116 54.6914C87.2563 54.6621 86.9443 54.6475 86.4756 54.6475H85.8472ZM90.2856 56.8184C90.2856 56.1621 90.3838 55.6113 90.5801 55.166C90.7266 54.8379 90.9258 54.5435 91.1777 54.2827C91.4326 54.022 91.7109 53.8286 92.0127 53.7026C92.4141 53.5327 92.877 53.4478 93.4014 53.4478C94.3506 53.4478 95.1094 53.7422 95.6777 54.3311C96.249 54.9199 96.5347 55.7388 96.5347 56.7876C96.5347 57.8276 96.252 58.6421 95.6865 59.231C95.1211 59.8169 94.3652 60.1099 93.4189 60.1099C92.4609 60.1099 91.6992 59.8184 91.1338 59.2354C90.5684 58.6494 90.2856 57.8438 90.2856 56.8184ZM91.626 56.7744C91.626 57.5039 91.7944 58.0576 92.1313 58.4355C92.4683 58.8105 92.896 58.998 93.4146 58.998C93.9331 58.998 94.3579 58.812 94.689 58.4399C95.0229 58.0649 95.1899 57.5039 95.1899 56.7568C95.1899 56.0186 95.0273 55.4678 94.7021 55.1045C94.3799 54.7412 93.9507 54.5596 93.4146 54.5596C92.8784 54.5596 92.4463 54.7441 92.1182 55.1133C91.79 55.4795 91.626 56.0332 91.626 56.7744ZM97.5586 60V53.5576H100.296C100.985 53.5576 101.484 53.6162 101.795 53.7334C102.108 53.8477 102.359 54.0527 102.546 54.3486C102.734 54.6445 102.828 54.9829 102.828 55.3638C102.828 55.8472 102.686 56.2471 102.401 56.5635C102.117 56.877 101.692 57.0747 101.127 57.1567C101.408 57.3208 101.64 57.501 101.821 57.6973C102.006 57.8936 102.253 58.2422 102.564 58.7432L103.351 60H101.795L100.854 58.5981C100.521 58.0972 100.292 57.7822 100.169 57.6533C100.046 57.5215 99.9155 57.4321 99.7778 57.3853C99.6401 57.3354 99.4219 57.3105 99.123 57.3105H98.8594V60H97.5586ZM98.8594 56.2822H99.8218C100.446 56.2822 100.835 56.2559 100.991 56.2031C101.146 56.1504 101.268 56.0596 101.355 55.9307C101.443 55.8018 101.487 55.6406 101.487 55.4473C101.487 55.2305 101.429 55.0562 101.312 54.9243C101.197 54.7896 101.035 54.7046 100.824 54.6694C100.718 54.6548 100.402 54.6475 99.8745 54.6475H98.8594V56.2822ZM105.508 60V54.6475H103.597V53.5576H108.716V54.6475H106.809V60H105.508ZM114.702 60H113.287L112.724 58.5366H110.149L109.617 60H108.237L110.747 53.5576H112.122L114.702 60ZM112.307 57.4512L111.419 55.0605L110.549 57.4512H112.307ZM115.431 60V53.6104H116.732V58.9146H119.966V60H115.431Z" fill="white"/>
<path d="M113.535 0.0300984L103.702 2.683C103.576 2.71325 103.463 2.79051 103.383 2.90166C103.303 3.01281 103.26 3.15098 103.262 3.29267C103.265 3.43437 103.311 3.57086 103.395 3.67892C103.479 3.78698 103.594 3.85995 103.721 3.88542C104.8 4.16449 108.309 5.12229 109.098 6.02152C109.888 6.92075 110.614 10.8002 110.825 11.9923C110.844 12.1008 110.89 12.2017 110.957 12.2847C111.023 12.3677 111.109 12.4298 111.205 12.4648C111.301 12.4998 111.403 12.5064 111.502 12.4839C111.601 12.4614 111.693 12.4107 111.768 12.3368C111.831 12.2582 111.879 12.1653 111.906 12.0646L114.736 1.40478C114.784 1.21971 114.787 1.02407 114.745 0.837281C114.703 0.650492 114.617 0.479075 114.495 0.34007C114.374 0.201066 114.221 0.0993129 114.053 0.0449341C113.884 -0.00944481 113.706 -0.0145613 113.535 0.0300984Z" fill="white"/>
<path d="M112.394 2.32471L108.491 3.32385C108.455 3.33306 108.422 3.35201 108.394 3.37898C108.367 3.40939 108.347 3.44731 108.338 3.48878C108.328 3.53024 108.329 3.57372 108.341 3.61461C108.352 3.65551 108.373 3.69232 108.402 3.72119C108.43 3.75005 108.466 3.76989 108.504 3.77864C108.913 3.8751 110.057 4.41602 110.359 4.75022C110.661 5.08442 111.148 6.34195 111.233 6.78985C111.241 6.83194 111.259 6.87101 111.285 6.90293C111.311 6.93484 111.344 6.95841 111.382 6.97112C111.419 6.98384 111.459 6.98523 111.497 6.97515C111.535 6.96507 111.57 6.94391 111.598 6.91388C111.622 6.88278 111.641 6.84639 111.651 6.80708L112.721 2.60033C112.787 2.2937 112.667 2.24547 112.394 2.32471Z" fill="#F2F2F2"/>
<path d="M0.00341797 48.3611V49.6807H8.39895V49.0192C5.83312 48.9204 3.27254 48.7275 0.717192 48.4404C0.478218 48.4232 0.239248 48.3956 0.00341797 48.3611Z" fill="white"/>
<path d="M45.9431 32.4816C46.8633 33.4909 47.9712 34.2712 49.1913 34.7693C50.493 35.3389 52.2141 35.6238 54.3544 35.6238H61.1714C65.2906 33.8023 69.3479 31.8258 73.3434 29.6943C71.8997 29.093 70.3625 28.8074 68.8186 28.8537H54.8103C54.4219 28.8693 54.0335 28.8252 53.6563 28.7228C53.4038 28.6533 53.1679 28.5252 52.9645 28.3472C52.7083 28.1265 52.5025 27.8435 52.3633 27.5206C52.2242 27.1977 52.1555 26.8438 52.1627 26.4867C52.1542 26.1518 52.2084 25.8185 52.322 25.5074C52.4355 25.1964 52.6061 24.9141 52.823 24.6779C53.0313 24.4586 53.2801 24.2906 53.5525 24.1853C53.9599 24.0497 54.3849 23.9892 54.8103 24.0061H82.6854V24.4333L83.396 24.0061C84.5972 23.2826 85.791 22.5488 86.9775 21.8046C89.581 20.1715 92.1563 18.4867 94.7033 16.7503C95.6686 16.0922 96.6276 15.4307 97.5835 14.7554H54.3386C52.2005 14.7554 50.4868 15.0391 49.1976 15.6064C47.9917 16.1159 46.8984 16.9004 45.9903 17.9079C45.1437 18.8669 44.4648 19.988 43.9873 21.2154C43.4948 22.4721 43.2453 23.8271 43.2546 25.1947C43.2412 26.5679 43.4819 27.9298 43.9621 29.1982C44.4305 30.4181 45.1023 31.5316 45.9431 32.4816Z" fill="white"/>
<path d="M76.5065 32.0062L76.3901 31.8787C73.7426 33.2201 71.0719 34.4971 68.3782 35.7099C68.5039 35.7306 68.6279 35.7617 68.7493 35.8029C69.0673 35.918 69.3516 36.1237 69.5731 36.399C69.7931 36.6434 69.9651 36.9345 70.0787 37.2545C70.1922 37.5744 70.2449 37.9164 70.2334 38.2594C70.2514 38.7475 70.1261 39.229 69.876 39.6333C69.6258 40.0376 69.264 40.3434 68.8436 40.5058C68.3489 40.6832 67.8293 40.7625 67.3091 40.7401H56.027L55.9233 40.778C52.3732 42.07 48.7855 43.2448 45.16 44.2577C43.2231 44.7952 41.283 45.3086 39.3334 45.7737C37.6292 46.1837 35.9186 46.5592 34.2018 46.8865C32.7616 47.1599 31.3184 47.4114 29.872 47.6411C29.155 47.7582 28.4318 47.8685 27.7118 47.9856C28.3201 48.6966 29.0554 49.2631 29.872 49.6497L29.9537 49.6876H68.8184C70.4595 49.7398 72.0916 49.405 73.6042 48.7057C74.8566 48.0938 75.9749 47.195 76.8838 46.07C77.6128 45.131 78.1941 44.0656 78.6038 42.9175C79.4812 40.4755 79.4485 37.7536 78.5126 35.3378C78.034 34.103 77.3542 32.9741 76.5065 32.0062Z" fill="white"/>
<path d="M33.8434 44.8572C35.796 44.4231 37.733 43.927 39.6637 43.3861C39.6637 43.2311 39.6637 43.0726 39.6637 42.9106V14.7451H31.3216V37.3292C31.3216 37.9494 31.1015 38.2595 30.6613 38.2595C30.5166 38.2613 30.3727 38.2344 30.2368 38.1802C30.0848 38.1049 29.9544 37.9858 29.8594 37.8357L14.2884 17.4325C13.4896 16.2785 12.4431 15.3587 11.2417 14.7546C10.0404 14.1505 8.72145 13.881 7.40215 13.9699C6.39778 13.9614 5.39736 14.1087 4.43069 14.4075C3.55636 14.6799 2.74996 15.1664 2.07239 15.8304C1.38769 16.527 0.864823 17.3929 0.547359 18.3558C0.15657 19.5722 -0.027787 20.8566 0.00338469 22.1457V47.3585C0.267514 47.3861 0.534781 47.4102 0.802054 47.4309C3.33015 47.6353 5.86244 47.7502 8.39892 47.7754V26.0113C8.39164 25.8795 8.40879 25.7475 8.44932 25.6231C8.48985 25.4988 8.55292 25.3847 8.63475 25.2878C8.70792 25.2046 8.79591 25.1387 8.89327 25.0942C8.99063 25.0498 9.09528 25.0277 9.20074 25.0294C9.34953 25.0435 9.49384 25.0922 9.624 25.1725C9.75416 25.2527 9.86716 25.3625 9.9554 25.4945L26.388 46.3146C27.5514 46.1263 28.7128 45.9173 29.872 45.6876C31.1989 45.4326 32.5227 45.1558 33.8434 44.8572Z" fill="white"/>
<path d="M118.053 22.7555C117.447 21.1725 116.566 19.7333 115.459 18.5177C114.346 17.3188 113.021 16.381 111.567 15.7615C110.043 15.0885 108.149 14.7531 105.885 14.7554H104.941C102.216 16.6572 99.4512 18.5028 96.6463 20.2921C92.0744 23.2091 87.4196 25.9711 82.6821 28.5781V49.691H91.2191V40.9054H105.888C108.34 40.9054 110.4 40.4828 112.066 39.6376C113.669 38.8465 115.088 37.6687 116.217 36.1922C117.095 35.0259 117.788 33.7064 118.267 32.2887C118.756 30.8565 119.005 29.339 119 27.8098C119.001 26.0721 118.679 24.3524 118.053 22.7555ZM109.752 30.6797C109.392 31.2102 108.912 31.6282 108.359 31.8925C107.635 32.217 106.855 32.3674 106.073 32.3335H91.2223V24.7538C91.2223 24.2714 91.4319 24.0302 91.8511 24.0302H106.095C106.859 24.0015 107.621 24.1421 108.334 24.4437C108.878 24.6881 109.357 25.0792 109.727 25.5806C110.26 26.3337 110.543 27.2634 110.529 28.2163C110.528 29.1029 110.257 29.9638 109.758 30.6625L109.752 30.6797Z" fill="white"/>
</svg>
