<svg width="222" height="32" viewBox="0 0 222 32" fill="none" xmlns="http://www.w3.org/2000/svg">
<path d="M0 12C0 5.37258 5.37258 0 12 0H27C29.2091 0 31 1.79086 31 4V28C31 30.2091 29.2091 32 27 32H4C1.79086 32 0 30.2091 0 28V12Z" fill="#C300D9"/>
<path d="M15.6967 25.288C14.4807 25.288 13.3927 25.08 12.4327 24.664C11.4887 24.248 10.7447 23.64 10.2007 22.84C9.65669 22.04 9.36869 21.072 9.33669 19.936H12.7687C12.7847 20.432 12.9127 20.88 13.1527 21.28C13.3927 21.68 13.7287 22 14.1607 22.24C14.5927 22.464 15.1047 22.576 15.6967 22.576C16.1927 22.576 16.6247 22.496 16.9927 22.336C17.3767 22.16 17.6727 21.92 17.8807 21.616C18.1047 21.312 18.2167 20.952 18.2167 20.536C18.2167 20.04 18.0887 19.632 17.8327 19.312C17.5927 18.976 17.2647 18.704 16.8487 18.496C16.4327 18.272 15.9527 18.072 15.4087 17.896C14.8807 17.704 14.3207 17.512 13.7287 17.32C12.4327 16.872 11.4407 16.296 10.7527 15.592C10.0647 14.872 9.72069 13.92 9.72069 12.736C9.72069 11.728 9.96069 10.864 10.4407 10.144C10.9207 9.424 11.5927 8.872 12.4567 8.488C13.3207 8.104 14.3047 7.912 15.4087 7.912C16.5447 7.912 17.5447 8.112 18.4087 8.512C19.2727 8.896 19.9527 9.456 20.4487 10.192C20.9447 10.928 21.2087 11.792 21.2407 12.784H17.7607C17.7447 12.416 17.6407 12.072 17.4487 11.752C17.2567 11.416 16.9847 11.152 16.6327 10.96C16.2807 10.752 15.8567 10.648 15.3607 10.648C14.9447 10.632 14.5687 10.696 14.2327 10.84C13.8967 10.984 13.6247 11.2 13.4167 11.488C13.2247 11.76 13.1287 12.104 13.1287 12.52C13.1287 12.92 13.2247 13.256 13.4167 13.528C13.6087 13.8 13.8807 14.04 14.2327 14.248C14.5847 14.44 15.0007 14.624 15.4807 14.8C15.9607 14.96 16.4807 15.128 17.0407 15.304C17.8887 15.592 18.6567 15.936 19.3447 16.336C20.0487 16.72 20.6087 17.224 21.0247 17.848C21.4407 18.472 21.6487 19.296 21.6487 20.32C21.6487 21.2 21.4167 22.016 20.9527 22.768C20.5047 23.52 19.8407 24.128 18.9607 24.592C18.0807 25.056 16.9927 25.288 15.6967 25.288Z" fill="white"/>
<rect x="35" width="31" height="32" rx="4" fill="#2BA129"/>
<path d="M45.4518 25V8.2H48.6918V22.48H56.0598V25H45.4518Z" fill="white"/>
<rect x="70" width="31" height="32" rx="4" fill="#070FFA"/>
<path d="M85.4452 25.288C84.2132 25.288 83.0932 25.04 82.0852 24.544C81.0772 24.048 80.2772 23.304 79.6852 22.312C79.0932 21.32 78.7972 20.056 78.7972 18.52V8.2H82.0372V18.544C82.0372 19.376 82.1732 20.08 82.4452 20.656C82.7172 21.216 83.1172 21.632 83.6452 21.904C84.1732 22.176 84.7892 22.312 85.4932 22.312C86.2292 22.312 86.8532 22.176 87.3652 21.904C87.8932 21.632 88.2932 21.216 88.5652 20.656C88.8532 20.08 88.9972 19.376 88.9972 18.544V8.2H92.2372V18.52C92.2372 20.056 91.9252 21.32 91.3012 22.312C90.6932 23.304 89.8772 24.048 88.8532 24.544C87.8292 25.04 86.6932 25.288 85.4452 25.288Z" fill="white"/>
<rect x="117" width="31" height="32" rx="4" fill="#B95304"/>
<path d="M132.151 25.288C131.063 25.288 130.103 25.08 129.271 24.664C128.455 24.248 127.815 23.64 127.351 22.84C126.903 22.024 126.679 21.04 126.679 19.888H129.919C129.919 20.4 129.999 20.848 130.159 21.232C130.319 21.6 130.551 21.888 130.855 22.096C131.175 22.288 131.583 22.384 132.079 22.384C132.543 22.384 132.927 22.296 133.231 22.12C133.535 21.928 133.751 21.664 133.879 21.328C134.023 20.976 134.095 20.56 134.095 20.08V8.2H137.335V20.08C137.335 21.76 136.863 23.048 135.919 23.944C134.991 24.84 133.735 25.288 132.151 25.288Z" fill="white"/>
<rect x="154" width="31" height="32" rx="4" fill="#C17835"/>
<path d="M169.697 25.288C168.481 25.288 167.393 25.08 166.433 24.664C165.489 24.248 164.745 23.64 164.201 22.84C163.657 22.04 163.369 21.072 163.337 19.936H166.769C166.785 20.432 166.913 20.88 167.153 21.28C167.393 21.68 167.729 22 168.161 22.24C168.593 22.464 169.105 22.576 169.697 22.576C170.193 22.576 170.625 22.496 170.993 22.336C171.377 22.16 171.673 21.92 171.881 21.616C172.105 21.312 172.217 20.952 172.217 20.536C172.217 20.04 172.089 19.632 171.833 19.312C171.593 18.976 171.265 18.704 170.849 18.496C170.433 18.272 169.953 18.072 169.409 17.896C168.881 17.704 168.321 17.512 167.729 17.32C166.433 16.872 165.441 16.296 164.753 15.592C164.065 14.872 163.721 13.92 163.721 12.736C163.721 11.728 163.961 10.864 164.441 10.144C164.921 9.424 165.593 8.872 166.457 8.488C167.321 8.104 168.305 7.912 169.409 7.912C170.545 7.912 171.545 8.112 172.409 8.512C173.273 8.896 173.953 9.456 174.449 10.192C174.945 10.928 175.209 11.792 175.241 12.784H171.761C171.745 12.416 171.641 12.072 171.449 11.752C171.257 11.416 170.985 11.152 170.633 10.96C170.281 10.752 169.857 10.648 169.361 10.648C168.945 10.632 168.569 10.696 168.233 10.84C167.897 10.984 167.625 11.2 167.417 11.488C167.225 11.76 167.129 12.104 167.129 12.52C167.129 12.92 167.225 13.256 167.417 13.528C167.609 13.8 167.881 14.04 168.233 14.248C168.585 14.44 169.001 14.624 169.481 14.8C169.961 14.96 170.481 15.128 171.041 15.304C171.889 15.592 172.657 15.936 173.345 16.336C174.049 16.72 174.609 17.224 175.025 17.848C175.441 18.472 175.649 19.296 175.649 20.32C175.649 21.2 175.417 22.016 174.953 22.768C174.505 23.52 173.841 24.128 172.961 24.592C172.081 25.056 170.993 25.288 169.697 25.288Z" fill="white"/>
<rect x="191" width="31" height="32" rx="4" fill="#660202"/>
<path d="M204.896 25V10.816H199.976V8.2H213.032V10.816H208.112V25H204.896Z" fill="white"/>
</svg>
